<mxfile host="app.diagrams.net" agent="Mozilla/5.0 (Windows NT 10.0; Win64; x64) AppleWebKit/537.36 (KHTML, like Gecko) Chrome/133.0.0.0 Safari/537.36" version="26.0.16">
  <diagram name="Page-1" id="rYyjlR0uo4PiNErBxXIh">
    <mxGraphModel grid="1" page="1" gridSize="10" guides="1" tooltips="1" connect="1" arrows="1" fold="1" pageScale="1" pageWidth="850" pageHeight="1100" math="0" shadow="0">
      <root>
        <mxCell id="0" />
        <mxCell id="1" parent="0" />
        <mxCell id="fO2XuQDmY7JOO_7-emTa-2" value="" style="shape=xor;whiteSpace=wrap;html=1;" vertex="1" parent="1">
          <mxGeometry x="560" y="720" width="60" height="80" as="geometry" />
        </mxCell>
        <mxCell id="fO2XuQDmY7JOO_7-emTa-3" value="" style="shape=xor;whiteSpace=wrap;html=1;" vertex="1" parent="1">
          <mxGeometry x="560" y="620" width="60" height="80" as="geometry" />
        </mxCell>
        <mxCell id="fO2XuQDmY7JOO_7-emTa-4" value="" style="shape=xor;whiteSpace=wrap;html=1;" vertex="1" parent="1">
          <mxGeometry x="560" y="520" width="60" height="80" as="geometry" />
        </mxCell>
        <mxCell id="fO2XuQDmY7JOO_7-emTa-5" value="" style="shape=xor;whiteSpace=wrap;html=1;" vertex="1" parent="1">
          <mxGeometry x="560" y="430" width="60" height="80" as="geometry" />
        </mxCell>
        <mxCell id="fO2XuQDmY7JOO_7-emTa-6" value="" style="shape=xor;whiteSpace=wrap;html=1;" vertex="1" parent="1">
          <mxGeometry x="560" y="330" width="60" height="80" as="geometry" />
        </mxCell>
        <mxCell id="fO2XuQDmY7JOO_7-emTa-7" value="" style="shape=xor;whiteSpace=wrap;html=1;" vertex="1" parent="1">
          <mxGeometry x="560" y="230" width="60" height="80" as="geometry" />
        </mxCell>
        <mxCell id="fO2XuQDmY7JOO_7-emTa-8" value="" style="shape=xor;whiteSpace=wrap;html=1;" vertex="1" parent="1">
          <mxGeometry x="560" y="120" width="60" height="80" as="geometry" />
        </mxCell>
        <mxCell id="fO2XuQDmY7JOO_7-emTa-9" value="" style="shape=xor;whiteSpace=wrap;html=1;" vertex="1" parent="1">
          <mxGeometry x="560" y="30" width="60" height="70" as="geometry" />
        </mxCell>
        <mxCell id="fO2XuQDmY7JOO_7-emTa-11" value="" style="ellipse;whiteSpace=wrap;html=1;" vertex="1" parent="1">
          <mxGeometry x="560" y="180" width="10" height="10" as="geometry" />
        </mxCell>
        <mxCell id="fO2XuQDmY7JOO_7-emTa-12" value="" style="ellipse;whiteSpace=wrap;html=1;" vertex="1" parent="1">
          <mxGeometry x="560" y="780" width="10" height="10" as="geometry" />
        </mxCell>
        <mxCell id="fO2XuQDmY7JOO_7-emTa-13" value="" style="ellipse;whiteSpace=wrap;html=1;" vertex="1" parent="1">
          <mxGeometry x="570" y="380" width="10" height="10" as="geometry" />
        </mxCell>
        <mxCell id="fO2XuQDmY7JOO_7-emTa-14" value="" style="ellipse;whiteSpace=wrap;html=1;" vertex="1" parent="1">
          <mxGeometry x="570" y="265" width="10" height="10" as="geometry" />
        </mxCell>
        <mxCell id="fO2XuQDmY7JOO_7-emTa-16" value="&lt;span style=&quot;color: rgba(0, 0, 0, 0); font-family: monospace; font-size: 0px; text-align: start; text-wrap-mode: nowrap;&quot;&gt;%3CmxGraphModel%3E%3Croot%3E%3CmxCell%20id%3D%220%22%2F%3E%3CmxCell%20id%3D%221%22%20parent%3D%220%22%2F%3E%3CmxCell%20id%3D%222%22%20value%3D%22%22%20style%3D%22ellipse%3BwhiteSpace%3Dwrap%3Bhtml%3D1%3B%22%20vertex%3D%221%22%20parent%3D%221%22%3E%3CmxGeometry%20x%3D%22240%22%20y%3D%22275%22%20width%3D%2210%22%20height%3D%2210%22%20as%3D%22geometry%22%2F%3E%3C%2FmxCell%3E%3C%2Froot%3E%3C%2FmxGraphModel%3E&lt;/span&gt;&lt;span style=&quot;color: rgba(0, 0, 0, 0); font-family: monospace; font-size: 0px; text-align: start; text-wrap-mode: nowrap;&quot;&gt;%3CmxGraphModel%3E%3Croot%3E%3CmxCell%20id%3D%220%22%2F%3E%3CmxCell%20id%3D%221%22%20parent%3D%220%22%2F%3E%3CmxCell%20id%3D%222%22%20value%3D%22%22%20style%3D%22ellipse%3BwhiteSpace%3Dwrap%3Bhtml%3D1%3B%22%20vertex%3D%221%22%20parent%3D%221%22%3E%3CmxGeometry%20x%3D%22240%22%20y%3D%22275%22%20width%3D%2210%22%20height%3D%2210%22%20as%3D%22geometry%22%2F%3E%3C%2FmxCell%3E%3C%2Froot%3E%3C%2FmxGraphModel%3E&lt;/span&gt;&lt;span style=&quot;color: rgba(0, 0, 0, 0); font-family: monospace; font-size: 0px; text-align: start; text-wrap-mode: nowrap;&quot;&gt;%3CmxGraphModel%3E%3Croot%3E%3CmxCell%20id%3D%220%22%2F%3E%3CmxCell%20id%3D%221%22%20parent%3D%220%22%2F%3E%3CmxCell%20id%3D%222%22%20value%3D%22%22%20style%3D%22ellipse%3BwhiteSpace%3Dwrap%3Bhtml%3D1%3B%22%20vertex%3D%221%22%20parent%3D%221%22%3E%3CmxGeometry%20x%3D%22240%22%20y%3D%22275%22%20width%3D%2210%22%20height%3D%2210%22%20as%3D%22geometry%22%2F%3E%3C%2FmxCell%3E%3C%2Froot%3E%3C%2FmxGraphModel%3E&lt;/span&gt;" style="ellipse;whiteSpace=wrap;html=1;" vertex="1" parent="1">
          <mxGeometry x="570" y="360" width="10" height="10" as="geometry" />
        </mxCell>
        <mxCell id="fO2XuQDmY7JOO_7-emTa-18" value="" style="ellipse;whiteSpace=wrap;html=1;" vertex="1" parent="1">
          <mxGeometry x="560" y="730" width="10" height="10" as="geometry" />
        </mxCell>
        <mxCell id="fO2XuQDmY7JOO_7-emTa-19" value="" style="ellipse;whiteSpace=wrap;html=1;" vertex="1" parent="1">
          <mxGeometry x="570" y="655" width="10" height="10" as="geometry" />
        </mxCell>
        <mxCell id="fO2XuQDmY7JOO_7-emTa-21" value="" style="ellipse;whiteSpace=wrap;html=1;" vertex="1" parent="1">
          <mxGeometry x="560" y="580" width="10" height="10" as="geometry" />
        </mxCell>
        <mxCell id="fO2XuQDmY7JOO_7-emTa-22" value="" style="ellipse;whiteSpace=wrap;html=1;" vertex="1" parent="1">
          <mxGeometry x="560" y="640" width="10" height="10" as="geometry" />
        </mxCell>
        <mxCell id="fO2XuQDmY7JOO_7-emTa-23" value="" style="ellipse;whiteSpace=wrap;html=1;" vertex="1" parent="1">
          <mxGeometry x="560" y="530" width="10" height="10" as="geometry" />
        </mxCell>
        <mxCell id="fO2XuQDmY7JOO_7-emTa-24" value="" style="ellipse;whiteSpace=wrap;html=1;" vertex="1" parent="1">
          <mxGeometry x="560" y="440" width="10" height="10" as="geometry" />
        </mxCell>
        <mxCell id="fO2XuQDmY7JOO_7-emTa-27" value="" style="ellipse;whiteSpace=wrap;html=1;" vertex="1" parent="1">
          <mxGeometry x="560" y="750" width="10" height="10" as="geometry" />
        </mxCell>
        <mxCell id="fO2XuQDmY7JOO_7-emTa-28" value="" style="endArrow=classic;html=1;rounded=0;exitX=0;exitY=0;exitDx=0;exitDy=0;entryX=0.175;entryY=0.25;entryDx=0;entryDy=0;entryPerimeter=0;" edge="1" parent="1" source="fO2XuQDmY7JOO_7-emTa-18" target="fO2XuQDmY7JOO_7-emTa-9">
          <mxGeometry width="50" height="50" relative="1" as="geometry">
            <mxPoint x="390" y="530" as="sourcePoint" />
            <mxPoint x="440" y="480" as="targetPoint" />
            <Array as="points">
              <mxPoint x="160" y="740" />
              <mxPoint x="160" y="48" />
            </Array>
          </mxGeometry>
        </mxCell>
        <mxCell id="fO2XuQDmY7JOO_7-emTa-29" value="" style="endArrow=classic;html=1;rounded=0;exitX=0;exitY=0.5;exitDx=0;exitDy=0;entryX=0.25;entryY=0.5;entryDx=0;entryDy=0;entryPerimeter=0;" edge="1" parent="1" source="fO2XuQDmY7JOO_7-emTa-27" target="fO2XuQDmY7JOO_7-emTa-9">
          <mxGeometry width="50" height="50" relative="1" as="geometry">
            <mxPoint x="571" y="741" as="sourcePoint" />
            <mxPoint x="581" y="58" as="targetPoint" />
            <Array as="points">
              <mxPoint x="380" y="760" />
              <mxPoint x="180" y="760" />
              <mxPoint x="180" y="590" />
              <mxPoint x="180" y="420" />
              <mxPoint x="180" y="70" />
            </Array>
          </mxGeometry>
        </mxCell>
        <mxCell id="fO2XuQDmY7JOO_7-emTa-30" value="" style="endArrow=classic;html=1;rounded=0;entryX=0.175;entryY=0.75;entryDx=0;entryDy=0;entryPerimeter=0;exitX=0;exitY=0.5;exitDx=0;exitDy=0;" edge="1" parent="1" source="fO2XuQDmY7JOO_7-emTa-12" target="fO2XuQDmY7JOO_7-emTa-9">
          <mxGeometry width="50" height="50" relative="1" as="geometry">
            <mxPoint x="550" y="790" as="sourcePoint" />
            <mxPoint x="611" y="100" as="targetPoint" />
            <Array as="points">
              <mxPoint x="200" y="785" />
              <mxPoint x="200" y="83" />
            </Array>
          </mxGeometry>
        </mxCell>
        <mxCell id="fO2XuQDmY7JOO_7-emTa-31" value="" style="endArrow=none;html=1;rounded=0;" edge="1" parent="1">
          <mxGeometry width="50" height="50" relative="1" as="geometry">
            <mxPoint x="720" y="760" as="sourcePoint" />
            <mxPoint x="720" y="50" as="targetPoint" />
          </mxGeometry>
        </mxCell>
        <mxCell id="fO2XuQDmY7JOO_7-emTa-32" value="" style="endArrow=none;html=1;rounded=0;exitX=1;exitY=0.5;exitDx=0;exitDy=0;exitPerimeter=0;" edge="1" parent="1" source="fO2XuQDmY7JOO_7-emTa-2">
          <mxGeometry width="50" height="50" relative="1" as="geometry">
            <mxPoint x="730" y="800" as="sourcePoint" />
            <mxPoint x="720" y="760" as="targetPoint" />
          </mxGeometry>
        </mxCell>
        <mxCell id="fO2XuQDmY7JOO_7-emTa-33" value="" style="endArrow=none;html=1;rounded=0;exitX=1;exitY=0.5;exitDx=0;exitDy=0;exitPerimeter=0;" edge="1" parent="1" source="fO2XuQDmY7JOO_7-emTa-3">
          <mxGeometry width="50" height="50" relative="1" as="geometry">
            <mxPoint x="630" y="770" as="sourcePoint" />
            <mxPoint x="720" y="660" as="targetPoint" />
          </mxGeometry>
        </mxCell>
        <mxCell id="fO2XuQDmY7JOO_7-emTa-34" value="" style="endArrow=none;html=1;rounded=0;exitX=1;exitY=0.5;exitDx=0;exitDy=0;exitPerimeter=0;" edge="1" parent="1" source="fO2XuQDmY7JOO_7-emTa-4">
          <mxGeometry width="50" height="50" relative="1" as="geometry">
            <mxPoint x="640" y="780" as="sourcePoint" />
            <mxPoint x="720" y="560" as="targetPoint" />
          </mxGeometry>
        </mxCell>
        <mxCell id="fO2XuQDmY7JOO_7-emTa-35" value="" style="endArrow=none;html=1;rounded=0;exitX=1;exitY=0.5;exitDx=0;exitDy=0;exitPerimeter=0;" edge="1" parent="1" source="fO2XuQDmY7JOO_7-emTa-5">
          <mxGeometry width="50" height="50" relative="1" as="geometry">
            <mxPoint x="650" y="790" as="sourcePoint" />
            <mxPoint x="720" y="470" as="targetPoint" />
          </mxGeometry>
        </mxCell>
        <mxCell id="fO2XuQDmY7JOO_7-emTa-36" value="" style="endArrow=none;html=1;rounded=0;exitX=1;exitY=0.5;exitDx=0;exitDy=0;exitPerimeter=0;" edge="1" parent="1">
          <mxGeometry width="50" height="50" relative="1" as="geometry">
            <mxPoint x="620" y="369" as="sourcePoint" />
            <mxPoint x="720" y="369" as="targetPoint" />
          </mxGeometry>
        </mxCell>
        <mxCell id="fO2XuQDmY7JOO_7-emTa-37" value="" style="endArrow=none;html=1;rounded=0;exitX=1;exitY=0.5;exitDx=0;exitDy=0;exitPerimeter=0;" edge="1" parent="1">
          <mxGeometry width="50" height="50" relative="1" as="geometry">
            <mxPoint x="620" y="269" as="sourcePoint" />
            <mxPoint x="720" y="269" as="targetPoint" />
          </mxGeometry>
        </mxCell>
        <mxCell id="fO2XuQDmY7JOO_7-emTa-38" value="" style="endArrow=none;html=1;rounded=0;exitX=1;exitY=0.5;exitDx=0;exitDy=0;exitPerimeter=0;" edge="1" parent="1">
          <mxGeometry width="50" height="50" relative="1" as="geometry">
            <mxPoint x="620" y="64" as="sourcePoint" />
            <mxPoint x="720" y="64" as="targetPoint" />
            <Array as="points" />
          </mxGeometry>
        </mxCell>
        <mxCell id="fO2XuQDmY7JOO_7-emTa-39" value="" style="endArrow=none;html=1;rounded=0;exitX=1;exitY=0.5;exitDx=0;exitDy=0;exitPerimeter=0;" edge="1" parent="1" source="fO2XuQDmY7JOO_7-emTa-8">
          <mxGeometry width="50" height="50" relative="1" as="geometry">
            <mxPoint x="690" y="830" as="sourcePoint" />
            <mxPoint x="720" y="160" as="targetPoint" />
          </mxGeometry>
        </mxCell>
        <mxCell id="fO2XuQDmY7JOO_7-emTa-40" value="AN[0]" style="text;html=1;align=center;verticalAlign=middle;resizable=0;points=[];autosize=1;strokeColor=none;fillColor=none;" vertex="1" parent="1">
          <mxGeometry x="640" y="28" width="50" height="30" as="geometry" />
        </mxCell>
        <mxCell id="fO2XuQDmY7JOO_7-emTa-42" value="AN[1]" style="text;html=1;align=center;verticalAlign=middle;resizable=0;points=[];autosize=1;strokeColor=none;fillColor=none;" vertex="1" parent="1">
          <mxGeometry x="635" y="128" width="50" height="30" as="geometry" />
        </mxCell>
        <mxCell id="fO2XuQDmY7JOO_7-emTa-43" value="AN[2]" style="text;strokeColor=none;align=center;fillColor=none;html=1;verticalAlign=middle;whiteSpace=wrap;rounded=0;" vertex="1" parent="1">
          <mxGeometry x="640" y="235" width="60" height="30" as="geometry" />
        </mxCell>
        <mxCell id="fO2XuQDmY7JOO_7-emTa-44" value="AN[3]" style="text;html=1;align=center;verticalAlign=middle;resizable=0;points=[];autosize=1;strokeColor=none;fillColor=none;" vertex="1" parent="1">
          <mxGeometry x="645" y="340" width="50" height="30" as="geometry" />
        </mxCell>
        <mxCell id="fO2XuQDmY7JOO_7-emTa-45" value="AN[4]" style="text;html=1;align=center;verticalAlign=middle;resizable=0;points=[];autosize=1;strokeColor=none;fillColor=none;" vertex="1" parent="1">
          <mxGeometry x="635" y="438" width="50" height="30" as="geometry" />
        </mxCell>
        <mxCell id="fO2XuQDmY7JOO_7-emTa-46" value="AN[5]" style="text;html=1;align=center;verticalAlign=middle;resizable=0;points=[];autosize=1;strokeColor=none;fillColor=none;" vertex="1" parent="1">
          <mxGeometry x="635" y="528" width="50" height="30" as="geometry" />
        </mxCell>
        <mxCell id="fO2XuQDmY7JOO_7-emTa-47" value="AN[6]" style="text;strokeColor=none;align=center;fillColor=none;html=1;verticalAlign=middle;whiteSpace=wrap;rounded=0;" vertex="1" parent="1">
          <mxGeometry x="645" y="630" width="60" height="30" as="geometry" />
        </mxCell>
        <mxCell id="fO2XuQDmY7JOO_7-emTa-49" value="AN[7]]" style="text;html=1;align=center;verticalAlign=middle;resizable=0;points=[];autosize=1;strokeColor=none;fillColor=none;" vertex="1" parent="1">
          <mxGeometry x="630" y="728" width="60" height="30" as="geometry" />
        </mxCell>
        <mxCell id="fO2XuQDmY7JOO_7-emTa-50" value="" style="endArrow=none;html=1;rounded=0;" edge="1" parent="1">
          <mxGeometry width="50" height="50" relative="1" as="geometry">
            <mxPoint x="720" y="410" as="sourcePoint" />
            <mxPoint x="790" y="410" as="targetPoint" />
          </mxGeometry>
        </mxCell>
        <mxCell id="fO2XuQDmY7JOO_7-emTa-51" value="" style="verticalLabelPosition=bottom;shadow=0;dashed=0;align=center;html=1;verticalAlign=top;shape=mxgraph.electrical.abstract.dac;strokeColor=#000000;fontFamily=Helvetica;fontSize=12;fontColor=default;fontStyle=1;fillColor=#fff2cc;rotation=-180;" vertex="1" parent="1">
          <mxGeometry x="790" y="400" width="30" height="20" as="geometry" />
        </mxCell>
        <mxCell id="fO2XuQDmY7JOO_7-emTa-52" value="AN" style="text;html=1;align=center;verticalAlign=middle;resizable=0;points=[];autosize=1;strokeColor=none;fillColor=none;" vertex="1" parent="1">
          <mxGeometry x="790" y="348" width="40" height="30" as="geometry" />
        </mxCell>
        <mxCell id="fO2XuQDmY7JOO_7-emTa-53" value="" style="endArrow=none;html=1;rounded=0;" edge="1" parent="1">
          <mxGeometry width="50" height="50" relative="1" as="geometry">
            <mxPoint x="740" y="430" as="sourcePoint" />
            <mxPoint x="770" y="400" as="targetPoint" />
          </mxGeometry>
        </mxCell>
        <mxCell id="fO2XuQDmY7JOO_7-emTa-54" value="8" style="text;html=1;align=center;verticalAlign=middle;resizable=0;points=[];autosize=1;strokeColor=none;fillColor=none;" vertex="1" parent="1">
          <mxGeometry x="745" y="448" width="30" height="30" as="geometry" />
        </mxCell>
        <mxCell id="fO2XuQDmY7JOO_7-emTa-55" value="" style="endArrow=classic;html=1;rounded=0;entryX=0.175;entryY=0.25;entryDx=0;entryDy=0;entryPerimeter=0;" edge="1" parent="1" target="fO2XuQDmY7JOO_7-emTa-8">
          <mxGeometry width="50" height="50" relative="1" as="geometry">
            <mxPoint x="160" y="140" as="sourcePoint" />
            <mxPoint x="440" y="480" as="targetPoint" />
          </mxGeometry>
        </mxCell>
        <mxCell id="fO2XuQDmY7JOO_7-emTa-56" value="" style="endArrow=classic;html=1;rounded=0;entryX=0.25;entryY=0.5;entryDx=0;entryDy=0;entryPerimeter=0;" edge="1" parent="1" target="fO2XuQDmY7JOO_7-emTa-8">
          <mxGeometry width="50" height="50" relative="1" as="geometry">
            <mxPoint x="180" y="160" as="sourcePoint" />
            <mxPoint x="581" y="150" as="targetPoint" />
          </mxGeometry>
        </mxCell>
        <mxCell id="fO2XuQDmY7JOO_7-emTa-57" value="" style="endArrow=classic;html=1;rounded=0;entryX=0.175;entryY=0.25;entryDx=0;entryDy=0;entryPerimeter=0;" edge="1" parent="1" target="fO2XuQDmY7JOO_7-emTa-7">
          <mxGeometry width="50" height="50" relative="1" as="geometry">
            <mxPoint x="160" y="250" as="sourcePoint" />
            <mxPoint x="585" y="170" as="targetPoint" />
          </mxGeometry>
        </mxCell>
        <mxCell id="fO2XuQDmY7JOO_7-emTa-58" value="" style="endArrow=classic;html=1;rounded=0;entryX=0.175;entryY=0.75;entryDx=0;entryDy=0;entryPerimeter=0;" edge="1" parent="1" target="fO2XuQDmY7JOO_7-emTa-7">
          <mxGeometry width="50" height="50" relative="1" as="geometry">
            <mxPoint x="200" y="290" as="sourcePoint" />
            <mxPoint x="581" y="260" as="targetPoint" />
          </mxGeometry>
        </mxCell>
        <mxCell id="fO2XuQDmY7JOO_7-emTa-59" value="" style="endArrow=classic;html=1;rounded=0;entryX=0.175;entryY=0.25;entryDx=0;entryDy=0;entryPerimeter=0;" edge="1" parent="1" target="fO2XuQDmY7JOO_7-emTa-6">
          <mxGeometry width="50" height="50" relative="1" as="geometry">
            <mxPoint x="160" y="350" as="sourcePoint" />
            <mxPoint x="581" y="300" as="targetPoint" />
          </mxGeometry>
        </mxCell>
        <mxCell id="fO2XuQDmY7JOO_7-emTa-60" value="" style="endArrow=classic;html=1;rounded=0;entryX=0.25;entryY=0.5;entryDx=0;entryDy=0;entryPerimeter=0;" edge="1" parent="1" target="fO2XuQDmY7JOO_7-emTa-5">
          <mxGeometry width="50" height="50" relative="1" as="geometry">
            <mxPoint x="180" y="460" as="sourcePoint" />
            <mxPoint x="581" y="360" as="targetPoint" />
          </mxGeometry>
        </mxCell>
        <mxCell id="fO2XuQDmY7JOO_7-emTa-61" value="" style="endArrow=classic;html=1;rounded=0;entryX=0.175;entryY=0.75;entryDx=0;entryDy=0;entryPerimeter=0;" edge="1" parent="1" target="fO2XuQDmY7JOO_7-emTa-5">
          <mxGeometry width="50" height="50" relative="1" as="geometry">
            <mxPoint x="200" y="490" as="sourcePoint" />
            <mxPoint x="585" y="480" as="targetPoint" />
          </mxGeometry>
        </mxCell>
        <mxCell id="fO2XuQDmY7JOO_7-emTa-62" value="" style="endArrow=classic;html=1;rounded=0;entryX=0.25;entryY=0.5;entryDx=0;entryDy=0;entryPerimeter=0;" edge="1" parent="1" target="fO2XuQDmY7JOO_7-emTa-4">
          <mxGeometry width="50" height="50" relative="1" as="geometry">
            <mxPoint x="180" y="560" as="sourcePoint" />
            <mxPoint x="595" y="490" as="targetPoint" />
          </mxGeometry>
        </mxCell>
        <mxCell id="fO2XuQDmY7JOO_7-emTa-63" value="" style="endArrow=classic;html=1;rounded=0;entryX=0.175;entryY=0.75;entryDx=0;entryDy=0;entryPerimeter=0;" edge="1" parent="1" target="fO2XuQDmY7JOO_7-emTa-3">
          <mxGeometry width="50" height="50" relative="1" as="geometry">
            <mxPoint x="200" y="680" as="sourcePoint" />
            <mxPoint x="585" y="570" as="targetPoint" />
          </mxGeometry>
        </mxCell>
        <mxCell id="fO2XuQDmY7JOO_7-emTa-64" value="" style="endArrow=none;html=1;rounded=0;entryX=0;entryY=0.5;entryDx=0;entryDy=0;" edge="1" parent="1" target="fO2XuQDmY7JOO_7-emTa-11">
          <mxGeometry width="50" height="50" relative="1" as="geometry">
            <mxPoint x="200" y="185" as="sourcePoint" />
            <mxPoint x="440" y="480" as="targetPoint" />
          </mxGeometry>
        </mxCell>
        <mxCell id="fO2XuQDmY7JOO_7-emTa-65" value="" style="endArrow=none;html=1;rounded=0;entryX=0.25;entryY=0.5;entryDx=0;entryDy=0;entryPerimeter=0;" edge="1" parent="1" target="fO2XuQDmY7JOO_7-emTa-7">
          <mxGeometry width="50" height="50" relative="1" as="geometry">
            <mxPoint x="180" y="270" as="sourcePoint" />
            <mxPoint x="570" y="195" as="targetPoint" />
          </mxGeometry>
        </mxCell>
        <mxCell id="fO2XuQDmY7JOO_7-emTa-66" value="" style="endArrow=none;html=1;rounded=0;entryX=0.25;entryY=0.5;entryDx=0;entryDy=0;entryPerimeter=0;" edge="1" parent="1" target="fO2XuQDmY7JOO_7-emTa-6">
          <mxGeometry width="50" height="50" relative="1" as="geometry">
            <mxPoint x="180" y="370" as="sourcePoint" />
            <mxPoint x="585" y="280" as="targetPoint" />
          </mxGeometry>
        </mxCell>
        <mxCell id="fO2XuQDmY7JOO_7-emTa-67" value="" style="endArrow=none;html=1;rounded=0;entryX=0;entryY=0.5;entryDx=0;entryDy=0;" edge="1" parent="1" target="fO2XuQDmY7JOO_7-emTa-13">
          <mxGeometry width="50" height="50" relative="1" as="geometry">
            <mxPoint x="200" y="385" as="sourcePoint" />
            <mxPoint x="585" y="380" as="targetPoint" />
          </mxGeometry>
        </mxCell>
        <mxCell id="fO2XuQDmY7JOO_7-emTa-68" value="" style="endArrow=none;html=1;rounded=0;entryX=0.175;entryY=0.25;entryDx=0;entryDy=0;entryPerimeter=0;" edge="1" parent="1" target="fO2XuQDmY7JOO_7-emTa-5">
          <mxGeometry width="50" height="50" relative="1" as="geometry">
            <mxPoint x="160" y="450" as="sourcePoint" />
            <mxPoint x="580" y="395" as="targetPoint" />
          </mxGeometry>
        </mxCell>
        <mxCell id="fO2XuQDmY7JOO_7-emTa-69" value="" style="endArrow=none;html=1;rounded=0;entryX=0;entryY=0.5;entryDx=0;entryDy=0;" edge="1" parent="1" target="fO2XuQDmY7JOO_7-emTa-23">
          <mxGeometry width="50" height="50" relative="1" as="geometry">
            <mxPoint x="160" y="530" as="sourcePoint" />
            <mxPoint x="581" y="460" as="targetPoint" />
          </mxGeometry>
        </mxCell>
        <mxCell id="fO2XuQDmY7JOO_7-emTa-70" value="" style="endArrow=none;html=1;rounded=0;entryX=0;entryY=0;entryDx=0;entryDy=0;" edge="1" parent="1" target="fO2XuQDmY7JOO_7-emTa-21">
          <mxGeometry width="50" height="50" relative="1" as="geometry">
            <mxPoint x="200" y="581" as="sourcePoint" />
            <mxPoint x="570" y="545" as="targetPoint" />
          </mxGeometry>
        </mxCell>
        <mxCell id="fO2XuQDmY7JOO_7-emTa-71" value="" style="endArrow=none;html=1;rounded=0;entryX=0;entryY=0;entryDx=0;entryDy=0;" edge="1" parent="1" target="fO2XuQDmY7JOO_7-emTa-22">
          <mxGeometry width="50" height="50" relative="1" as="geometry">
            <mxPoint x="160" y="641" as="sourcePoint" />
            <mxPoint x="571" y="591" as="targetPoint" />
          </mxGeometry>
        </mxCell>
        <mxCell id="fO2XuQDmY7JOO_7-emTa-72" value="" style="endArrow=none;html=1;rounded=0;entryX=0.25;entryY=0.5;entryDx=0;entryDy=0;entryPerimeter=0;" edge="1" parent="1" target="fO2XuQDmY7JOO_7-emTa-3">
          <mxGeometry width="50" height="50" relative="1" as="geometry">
            <mxPoint x="180" y="660" as="sourcePoint" />
            <mxPoint x="581" y="601" as="targetPoint" />
          </mxGeometry>
        </mxCell>
        <mxCell id="fO2XuQDmY7JOO_7-emTa-74" value="" style="endArrow=none;html=1;rounded=0;entryX=0.25;entryY=0.5;entryDx=0;entryDy=0;entryPerimeter=0;" edge="1" parent="1">
          <mxGeometry width="50" height="50" relative="1" as="geometry">
            <mxPoint x="40" y="249" as="sourcePoint" />
            <mxPoint x="165" y="249" as="targetPoint" />
          </mxGeometry>
        </mxCell>
        <mxCell id="fO2XuQDmY7JOO_7-emTa-75" value="" style="endArrow=none;html=1;rounded=0;entryX=0.25;entryY=0.5;entryDx=0;entryDy=0;entryPerimeter=0;" edge="1" parent="1">
          <mxGeometry width="50" height="50" relative="1" as="geometry">
            <mxPoint x="-30" y="370" as="sourcePoint" />
            <mxPoint x="195" y="372" as="targetPoint" />
          </mxGeometry>
        </mxCell>
        <mxCell id="fO2XuQDmY7JOO_7-emTa-76" value="" style="endArrow=none;html=1;rounded=0;entryX=0.25;entryY=0.5;entryDx=0;entryDy=0;entryPerimeter=0;" edge="1" parent="1">
          <mxGeometry width="50" height="50" relative="1" as="geometry">
            <mxPoint x="40" y="490" as="sourcePoint" />
            <mxPoint x="205" y="494" as="targetPoint" />
            <Array as="points">
              <mxPoint x="80" y="490" />
            </Array>
          </mxGeometry>
        </mxCell>
        <mxCell id="fO2XuQDmY7JOO_7-emTa-77" value="" style="verticalLabelPosition=bottom;shadow=0;dashed=0;align=center;html=1;verticalAlign=top;shape=mxgraph.electrical.abstract.dac;strokeColor=#000000;fontFamily=Helvetica;fontSize=12;fontColor=default;fontStyle=1;fillColor=#fff2cc;rotation=0;" vertex="1" parent="1">
          <mxGeometry x="-60" y="360" width="30" height="20" as="geometry" />
        </mxCell>
        <mxCell id="fO2XuQDmY7JOO_7-emTa-78" value="" style="endArrow=none;html=1;rounded=0;" edge="1" parent="1">
          <mxGeometry width="50" height="50" relative="1" as="geometry">
            <mxPoint x="40" y="490" as="sourcePoint" />
            <mxPoint x="40" y="250" as="targetPoint" />
            <Array as="points" />
          </mxGeometry>
        </mxCell>
        <mxCell id="fO2XuQDmY7JOO_7-emTa-80" value="" style="endArrow=none;html=1;rounded=0;" edge="1" parent="1">
          <mxGeometry width="50" height="50" relative="1" as="geometry">
            <mxPoint x="-10" y="390" as="sourcePoint" />
            <mxPoint x="20" y="340" as="targetPoint" />
            <Array as="points">
              <mxPoint x="-20" y="400" />
            </Array>
          </mxGeometry>
        </mxCell>
        <mxCell id="fO2XuQDmY7JOO_7-emTa-81" value="3" style="text;html=1;align=center;verticalAlign=middle;resizable=0;points=[];autosize=1;strokeColor=none;fillColor=none;" vertex="1" parent="1">
          <mxGeometry x="-35" y="418" width="30" height="30" as="geometry" />
        </mxCell>
        <mxCell id="fO2XuQDmY7JOO_7-emTa-82" value="SELECTOR" style="text;html=1;align=center;verticalAlign=middle;resizable=0;points=[];autosize=1;strokeColor=none;fillColor=none;" vertex="1" parent="1">
          <mxGeometry x="-90" y="318" width="90" height="30" as="geometry" />
        </mxCell>
        <mxCell id="fO2XuQDmY7JOO_7-emTa-83" value="" style="shape=xor;whiteSpace=wrap;html=1;" vertex="1" parent="1">
          <mxGeometry x="-320" y="110" width="60" height="80" as="geometry" />
        </mxCell>
        <mxCell id="fO2XuQDmY7JOO_7-emTa-84" value="" style="shape=xor;whiteSpace=wrap;html=1;" vertex="1" parent="1">
          <mxGeometry x="-320" y="360" width="60" height="80" as="geometry" />
        </mxCell>
        <mxCell id="fO2XuQDmY7JOO_7-emTa-85" value="" style="shape=xor;whiteSpace=wrap;html=1;" vertex="1" parent="1">
          <mxGeometry x="-320" y="620" width="60" height="80" as="geometry" />
        </mxCell>
        <mxCell id="fO2XuQDmY7JOO_7-emTa-86" value="" style="verticalLabelPosition=bottom;shadow=0;dashed=0;align=center;html=1;verticalAlign=top;shape=mxgraph.electrical.abstract.dac;strokeColor=#000000;fontFamily=Helvetica;fontSize=12;fontColor=default;fontStyle=1;fillColor=#fff2cc;rotation=-180;" vertex="1" parent="1">
          <mxGeometry x="-220" y="650" width="30" height="20" as="geometry" />
        </mxCell>
        <mxCell id="fO2XuQDmY7JOO_7-emTa-87" value="" style="verticalLabelPosition=bottom;shadow=0;dashed=0;align=center;html=1;verticalAlign=top;shape=mxgraph.electrical.abstract.dac;strokeColor=#000000;fontFamily=Helvetica;fontSize=12;fontColor=default;fontStyle=1;fillColor=#fff2cc;rotation=-180;" vertex="1" parent="1">
          <mxGeometry x="-210" y="390" width="30" height="20" as="geometry" />
        </mxCell>
        <mxCell id="fO2XuQDmY7JOO_7-emTa-88" value="" style="verticalLabelPosition=bottom;shadow=0;dashed=0;align=center;html=1;verticalAlign=top;shape=mxgraph.electrical.abstract.dac;strokeColor=#000000;fontFamily=Helvetica;fontSize=12;fontColor=default;fontStyle=1;fillColor=#fff2cc;rotation=-180;" vertex="1" parent="1">
          <mxGeometry x="-210" y="150" width="30" height="20" as="geometry" />
        </mxCell>
        <mxCell id="fO2XuQDmY7JOO_7-emTa-109" style="edgeStyle=orthogonalEdgeStyle;rounded=0;orthogonalLoop=1;jettySize=auto;html=1;exitX=1;exitY=0.5;exitDx=0;exitDy=0;exitPerimeter=0;" edge="1" parent="1" source="fO2XuQDmY7JOO_7-emTa-90">
          <mxGeometry relative="1" as="geometry">
            <mxPoint x="-300" y="150" as="targetPoint" />
          </mxGeometry>
        </mxCell>
        <mxCell id="fO2XuQDmY7JOO_7-emTa-90" value="" style="shape=or;whiteSpace=wrap;html=1;" vertex="1" parent="1">
          <mxGeometry x="-445" y="100" width="40" height="52" as="geometry" />
        </mxCell>
        <mxCell id="fO2XuQDmY7JOO_7-emTa-91" value="" style="shape=or;whiteSpace=wrap;html=1;" vertex="1" parent="1">
          <mxGeometry x="-440" y="170" width="40" height="52" as="geometry" />
        </mxCell>
        <mxCell id="fO2XuQDmY7JOO_7-emTa-92" value="" style="shape=or;whiteSpace=wrap;html=1;" vertex="1" parent="1">
          <mxGeometry x="-445" y="30" width="40" height="52" as="geometry" />
        </mxCell>
        <mxCell id="fO2XuQDmY7JOO_7-emTa-93" value="" style="shape=or;whiteSpace=wrap;html=1;" vertex="1" parent="1">
          <mxGeometry x="-445" y="275" width="40" height="52" as="geometry" />
        </mxCell>
        <mxCell id="fO2XuQDmY7JOO_7-emTa-94" value="" style="shape=or;whiteSpace=wrap;html=1;" vertex="1" parent="1">
          <mxGeometry x="-445" y="348" width="40" height="52" as="geometry" />
        </mxCell>
        <mxCell id="fO2XuQDmY7JOO_7-emTa-105" style="edgeStyle=orthogonalEdgeStyle;rounded=0;orthogonalLoop=1;jettySize=auto;html=1;exitX=1;exitY=0.5;exitDx=0;exitDy=0;exitPerimeter=0;entryX=0.175;entryY=0.75;entryDx=0;entryDy=0;entryPerimeter=0;" edge="1" parent="1" source="fO2XuQDmY7JOO_7-emTa-95" target="fO2XuQDmY7JOO_7-emTa-84">
          <mxGeometry relative="1" as="geometry">
            <mxPoint x="-380" y="452" as="targetPoint" />
          </mxGeometry>
        </mxCell>
        <mxCell id="fO2XuQDmY7JOO_7-emTa-95" value="" style="shape=or;whiteSpace=wrap;html=1;" vertex="1" parent="1">
          <mxGeometry x="-445" y="426" width="40" height="52" as="geometry" />
        </mxCell>
        <mxCell id="fO2XuQDmY7JOO_7-emTa-96" value="" style="shape=or;whiteSpace=wrap;html=1;" vertex="1" parent="1">
          <mxGeometry x="-445" y="509" width="40" height="52" as="geometry" />
        </mxCell>
        <mxCell id="fO2XuQDmY7JOO_7-emTa-103" style="edgeStyle=orthogonalEdgeStyle;rounded=0;orthogonalLoop=1;jettySize=auto;html=1;exitX=1;exitY=0.5;exitDx=0;exitDy=0;exitPerimeter=0;" edge="1" parent="1" source="fO2XuQDmY7JOO_7-emTa-97">
          <mxGeometry relative="1" as="geometry">
            <mxPoint x="-310" y="640" as="targetPoint" />
          </mxGeometry>
        </mxCell>
        <mxCell id="fO2XuQDmY7JOO_7-emTa-97" value="" style="shape=or;whiteSpace=wrap;html=1;" vertex="1" parent="1">
          <mxGeometry x="-445" y="590" width="40" height="52" as="geometry" />
        </mxCell>
        <mxCell id="fO2XuQDmY7JOO_7-emTa-98" value="" style="shape=or;whiteSpace=wrap;html=1;" vertex="1" parent="1">
          <mxGeometry x="-440" y="668" width="40" height="52" as="geometry" />
        </mxCell>
        <mxCell id="fO2XuQDmY7JOO_7-emTa-99" value="" style="shape=or;whiteSpace=wrap;html=1;" vertex="1" parent="1">
          <mxGeometry x="-445" y="758" width="40" height="52" as="geometry" />
        </mxCell>
        <mxCell id="fO2XuQDmY7JOO_7-emTa-101" style="edgeStyle=orthogonalEdgeStyle;rounded=0;orthogonalLoop=1;jettySize=auto;html=1;exitX=1;exitY=0.5;exitDx=0;exitDy=0;exitPerimeter=0;entryX=0.175;entryY=0.75;entryDx=0;entryDy=0;entryPerimeter=0;" edge="1" parent="1" source="fO2XuQDmY7JOO_7-emTa-99" target="fO2XuQDmY7JOO_7-emTa-85">
          <mxGeometry relative="1" as="geometry">
            <Array as="points">
              <mxPoint x="-340" y="784" />
              <mxPoint x="-340" y="680" />
            </Array>
          </mxGeometry>
        </mxCell>
        <mxCell id="fO2XuQDmY7JOO_7-emTa-102" style="edgeStyle=orthogonalEdgeStyle;rounded=0;orthogonalLoop=1;jettySize=auto;html=1;exitX=1;exitY=0.5;exitDx=0;exitDy=0;exitPerimeter=0;entryX=0.25;entryY=0.5;entryDx=0;entryDy=0;entryPerimeter=0;" edge="1" parent="1" source="fO2XuQDmY7JOO_7-emTa-98" target="fO2XuQDmY7JOO_7-emTa-85">
          <mxGeometry relative="1" as="geometry" />
        </mxCell>
        <mxCell id="fO2XuQDmY7JOO_7-emTa-104" style="edgeStyle=orthogonalEdgeStyle;rounded=0;orthogonalLoop=1;jettySize=auto;html=1;exitX=1;exitY=0.5;exitDx=0;exitDy=0;exitPerimeter=0;entryX=0.175;entryY=0.75;entryDx=0;entryDy=0;entryPerimeter=0;" edge="1" parent="1" source="fO2XuQDmY7JOO_7-emTa-96" target="fO2XuQDmY7JOO_7-emTa-84">
          <mxGeometry relative="1" as="geometry">
            <Array as="points">
              <mxPoint x="-330" y="535" />
              <mxPoint x="-330" y="420" />
            </Array>
          </mxGeometry>
        </mxCell>
        <mxCell id="fO2XuQDmY7JOO_7-emTa-106" style="edgeStyle=orthogonalEdgeStyle;rounded=0;orthogonalLoop=1;jettySize=auto;html=1;exitX=1;exitY=0.5;exitDx=0;exitDy=0;exitPerimeter=0;entryX=0.25;entryY=0.5;entryDx=0;entryDy=0;entryPerimeter=0;" edge="1" parent="1" source="fO2XuQDmY7JOO_7-emTa-94" target="fO2XuQDmY7JOO_7-emTa-84">
          <mxGeometry relative="1" as="geometry" />
        </mxCell>
        <mxCell id="fO2XuQDmY7JOO_7-emTa-107" style="edgeStyle=orthogonalEdgeStyle;rounded=0;orthogonalLoop=1;jettySize=auto;html=1;exitX=1;exitY=0.5;exitDx=0;exitDy=0;exitPerimeter=0;entryX=0.175;entryY=0.25;entryDx=0;entryDy=0;entryPerimeter=0;" edge="1" parent="1" source="fO2XuQDmY7JOO_7-emTa-93" target="fO2XuQDmY7JOO_7-emTa-84">
          <mxGeometry relative="1" as="geometry">
            <Array as="points">
              <mxPoint x="-340" y="301" />
              <mxPoint x="-340" y="380" />
            </Array>
          </mxGeometry>
        </mxCell>
        <mxCell id="fO2XuQDmY7JOO_7-emTa-108" style="edgeStyle=orthogonalEdgeStyle;rounded=0;orthogonalLoop=1;jettySize=auto;html=1;exitX=1;exitY=0.5;exitDx=0;exitDy=0;exitPerimeter=0;entryX=0.175;entryY=0.75;entryDx=0;entryDy=0;entryPerimeter=0;" edge="1" parent="1" source="fO2XuQDmY7JOO_7-emTa-91" target="fO2XuQDmY7JOO_7-emTa-83">
          <mxGeometry relative="1" as="geometry" />
        </mxCell>
        <mxCell id="fO2XuQDmY7JOO_7-emTa-110" style="edgeStyle=orthogonalEdgeStyle;rounded=0;orthogonalLoop=1;jettySize=auto;html=1;exitX=1;exitY=0.5;exitDx=0;exitDy=0;exitPerimeter=0;entryX=0.175;entryY=0.25;entryDx=0;entryDy=0;entryPerimeter=0;" edge="1" parent="1" source="fO2XuQDmY7JOO_7-emTa-92" target="fO2XuQDmY7JOO_7-emTa-83">
          <mxGeometry relative="1" as="geometry">
            <Array as="points">
              <mxPoint x="-340" y="56" />
              <mxPoint x="-340" y="130" />
            </Array>
          </mxGeometry>
        </mxCell>
        <mxCell id="fO2XuQDmY7JOO_7-emTa-111" value="" style="ellipse;whiteSpace=wrap;html=1;" vertex="1" parent="1">
          <mxGeometry x="-450" y="590" width="10" height="10" as="geometry" />
        </mxCell>
        <mxCell id="fO2XuQDmY7JOO_7-emTa-112" value="" style="ellipse;whiteSpace=wrap;html=1;" vertex="1" parent="1">
          <mxGeometry x="-450" y="610" width="10" height="10" as="geometry" />
        </mxCell>
        <mxCell id="fO2XuQDmY7JOO_7-emTa-113" value="" style="ellipse;whiteSpace=wrap;html=1;" vertex="1" parent="1">
          <mxGeometry x="-450" y="630" width="10" height="10" as="geometry" />
        </mxCell>
        <mxCell id="fO2XuQDmY7JOO_7-emTa-114" value="" style="ellipse;whiteSpace=wrap;html=1;" vertex="1" parent="1">
          <mxGeometry x="-455" y="280" width="10" height="10" as="geometry" />
        </mxCell>
        <mxCell id="fO2XuQDmY7JOO_7-emTa-115" value="" style="ellipse;whiteSpace=wrap;html=1;" vertex="1" parent="1">
          <mxGeometry x="-450" y="350" width="10" height="10" as="geometry" />
        </mxCell>
        <mxCell id="fO2XuQDmY7JOO_7-emTa-117" value="" style="ellipse;whiteSpace=wrap;html=1;" vertex="1" parent="1">
          <mxGeometry x="-450" y="710" width="10" height="10" as="geometry" />
        </mxCell>
        <mxCell id="fO2XuQDmY7JOO_7-emTa-118" value="" style="ellipse;whiteSpace=wrap;html=1;" vertex="1" parent="1">
          <mxGeometry x="-450" y="690" width="10" height="10" as="geometry" />
        </mxCell>
        <mxCell id="fO2XuQDmY7JOO_7-emTa-119" value="" style="ellipse;whiteSpace=wrap;html=1;" vertex="1" parent="1">
          <mxGeometry x="-455" y="760" width="10" height="10" as="geometry" />
        </mxCell>
        <mxCell id="fO2XuQDmY7JOO_7-emTa-120" value="" style="ellipse;whiteSpace=wrap;html=1;" vertex="1" parent="1">
          <mxGeometry x="-455" y="296" width="10" height="10" as="geometry" />
        </mxCell>
        <mxCell id="fO2XuQDmY7JOO_7-emTa-121" value="" style="ellipse;whiteSpace=wrap;html=1;" vertex="1" parent="1">
          <mxGeometry x="-455" y="430" width="10" height="10" as="geometry" />
        </mxCell>
        <mxCell id="fO2XuQDmY7JOO_7-emTa-123" value="" style="ellipse;whiteSpace=wrap;html=1;" vertex="1" parent="1">
          <mxGeometry x="-450" y="538" width="10" height="10" as="geometry" />
        </mxCell>
        <mxCell id="fO2XuQDmY7JOO_7-emTa-124" value="" style="ellipse;whiteSpace=wrap;html=1;" vertex="1" parent="1">
          <mxGeometry x="-455" y="38" width="10" height="10" as="geometry" />
        </mxCell>
        <mxCell id="fO2XuQDmY7JOO_7-emTa-125" value="" style="ellipse;whiteSpace=wrap;html=1;" vertex="1" parent="1">
          <mxGeometry x="-450" y="110" width="10" height="10" as="geometry" />
        </mxCell>
        <mxCell id="fO2XuQDmY7JOO_7-emTa-129" value="" style="ellipse;whiteSpace=wrap;html=1;" vertex="1" parent="1">
          <mxGeometry x="-450" y="210" width="10" height="10" as="geometry" />
        </mxCell>
        <mxCell id="fO2XuQDmY7JOO_7-emTa-130" value="" style="ellipse;whiteSpace=wrap;html=1;" vertex="1" parent="1">
          <mxGeometry x="-450" y="180" width="10" height="10" as="geometry" />
        </mxCell>
        <mxCell id="fO2XuQDmY7JOO_7-emTa-131" value="" style="ellipse;whiteSpace=wrap;html=1;" vertex="1" parent="1">
          <mxGeometry x="-450" y="121" width="10" height="10" as="geometry" />
        </mxCell>
        <mxCell id="fO2XuQDmY7JOO_7-emTa-132" style="edgeStyle=orthogonalEdgeStyle;rounded=0;orthogonalLoop=1;jettySize=auto;html=1;exitX=1;exitY=0.5;exitDx=0;exitDy=0;exitPerimeter=0;entryX=1;entryY=0.5;entryDx=0;entryDy=0;entryPerimeter=0;" edge="1" parent="1" source="fO2XuQDmY7JOO_7-emTa-85" target="fO2XuQDmY7JOO_7-emTa-86">
          <mxGeometry relative="1" as="geometry" />
        </mxCell>
        <mxCell id="fO2XuQDmY7JOO_7-emTa-133" style="edgeStyle=orthogonalEdgeStyle;rounded=0;orthogonalLoop=1;jettySize=auto;html=1;exitX=1;exitY=0.5;exitDx=0;exitDy=0;exitPerimeter=0;entryX=1;entryY=0.5;entryDx=0;entryDy=0;entryPerimeter=0;" edge="1" parent="1" source="fO2XuQDmY7JOO_7-emTa-84" target="fO2XuQDmY7JOO_7-emTa-87">
          <mxGeometry relative="1" as="geometry" />
        </mxCell>
        <mxCell id="fO2XuQDmY7JOO_7-emTa-134" style="edgeStyle=orthogonalEdgeStyle;rounded=0;orthogonalLoop=1;jettySize=auto;html=1;exitX=1;exitY=0.5;exitDx=0;exitDy=0;exitPerimeter=0;entryX=1;entryY=0.5;entryDx=0;entryDy=0;entryPerimeter=0;" edge="1" parent="1" source="fO2XuQDmY7JOO_7-emTa-83" target="fO2XuQDmY7JOO_7-emTa-88">
          <mxGeometry relative="1" as="geometry" />
        </mxCell>
        <mxCell id="fO2XuQDmY7JOO_7-emTa-135" value="E" style="text;html=1;align=center;verticalAlign=middle;resizable=0;points=[];autosize=1;strokeColor=none;fillColor=none;" vertex="1" parent="1">
          <mxGeometry x="-205" y="98" width="30" height="30" as="geometry" />
        </mxCell>
        <mxCell id="fO2XuQDmY7JOO_7-emTa-136" value="F" style="text;html=1;align=center;verticalAlign=middle;resizable=0;points=[];autosize=1;strokeColor=none;fillColor=none;" vertex="1" parent="1">
          <mxGeometry x="-205" y="348" width="30" height="30" as="geometry" />
        </mxCell>
        <mxCell id="fO2XuQDmY7JOO_7-emTa-137" value="G" style="text;html=1;align=center;verticalAlign=middle;resizable=0;points=[];autosize=1;strokeColor=none;fillColor=none;" vertex="1" parent="1">
          <mxGeometry x="-215" y="618" width="30" height="30" as="geometry" />
        </mxCell>
        <mxCell id="fO2XuQDmY7JOO_7-emTa-138" value="" style="verticalLabelPosition=bottom;shadow=0;dashed=0;align=center;html=1;verticalAlign=top;shape=mxgraph.electrical.abstract.dac;strokeColor=#000000;fontFamily=Helvetica;fontSize=12;fontColor=default;fontStyle=1;fillColor=#fff2cc;rotation=-180;" vertex="1" parent="1">
          <mxGeometry x="-120" y="890" width="30" height="20" as="geometry" />
        </mxCell>
        <mxCell id="fO2XuQDmY7JOO_7-emTa-139" value="" style="endArrow=none;html=1;rounded=0;exitX=1;exitY=0.5;exitDx=0;exitDy=0;exitPerimeter=0;" edge="1" parent="1" source="fO2XuQDmY7JOO_7-emTa-138">
          <mxGeometry width="50" height="50" relative="1" as="geometry">
            <mxPoint x="-100" y="530" as="sourcePoint" />
            <mxPoint x="-200" y="840" as="targetPoint" />
            <Array as="points">
              <mxPoint x="-200" y="900" />
            </Array>
          </mxGeometry>
        </mxCell>
        <mxCell id="fO2XuQDmY7JOO_7-emTa-140" value="" style="endArrow=none;html=1;rounded=0;" edge="1" parent="1">
          <mxGeometry width="50" height="50" relative="1" as="geometry">
            <mxPoint x="-145" y="840" as="sourcePoint" />
            <mxPoint x="-240" y="840" as="targetPoint" />
          </mxGeometry>
        </mxCell>
        <mxCell id="fO2XuQDmY7JOO_7-emTa-141" value="1" style="text;html=1;align=center;verticalAlign=middle;resizable=0;points=[];autosize=1;strokeColor=none;fillColor=none;" vertex="1" parent="1">
          <mxGeometry x="-235" y="858" width="30" height="30" as="geometry" />
        </mxCell>
        <mxCell id="fO2XuQDmY7JOO_7-emTa-142" value="DP" style="text;html=1;align=center;verticalAlign=middle;resizable=0;points=[];autosize=1;strokeColor=none;fillColor=none;" vertex="1" parent="1">
          <mxGeometry x="-110" y="818" width="40" height="30" as="geometry" />
        </mxCell>
        <mxCell id="fO2XuQDmY7JOO_7-emTa-143" value="" style="endArrow=none;html=1;rounded=0;entryX=0;entryY=0.75;entryDx=0;entryDy=0;entryPerimeter=0;" edge="1" parent="1" target="fO2XuQDmY7JOO_7-emTa-90">
          <mxGeometry width="50" height="50" relative="1" as="geometry">
            <mxPoint x="-720" y="140" as="sourcePoint" />
            <mxPoint x="-50" y="480" as="targetPoint" />
          </mxGeometry>
        </mxCell>
        <mxCell id="fO2XuQDmY7JOO_7-emTa-144" value="" style="endArrow=none;html=1;rounded=0;exitX=0;exitY=0;exitDx=0;exitDy=0;entryX=0;entryY=0;entryDx=0;entryDy=0;" edge="1" parent="1" source="fO2XuQDmY7JOO_7-emTa-124" target="fO2XuQDmY7JOO_7-emTa-119">
          <mxGeometry width="50" height="50" relative="1" as="geometry">
            <mxPoint x="-100" y="530" as="sourcePoint" />
            <mxPoint x="-50" y="480" as="targetPoint" />
            <Array as="points">
              <mxPoint x="-720" y="39" />
              <mxPoint x="-720" y="761" />
            </Array>
          </mxGeometry>
        </mxCell>
        <mxCell id="fO2XuQDmY7JOO_7-emTa-145" value="" style="endArrow=none;html=1;rounded=0;exitX=0;exitY=0.75;exitDx=0;exitDy=0;exitPerimeter=0;entryX=0;entryY=0.75;entryDx=0;entryDy=0;entryPerimeter=0;" edge="1" parent="1" source="fO2XuQDmY7JOO_7-emTa-92" target="fO2XuQDmY7JOO_7-emTa-99">
          <mxGeometry width="50" height="50" relative="1" as="geometry">
            <mxPoint x="-444" y="49" as="sourcePoint" />
            <mxPoint x="-500" y="850" as="targetPoint" />
            <Array as="points">
              <mxPoint x="-640" y="69" />
              <mxPoint x="-640" y="800" />
            </Array>
          </mxGeometry>
        </mxCell>
        <mxCell id="fO2XuQDmY7JOO_7-emTa-146" value="" style="endArrow=none;html=1;rounded=0;entryX=0;entryY=0.25;entryDx=0;entryDy=0;entryPerimeter=0;exitX=0;exitY=0;exitDx=0;exitDy=0;" edge="1" parent="1" source="fO2XuQDmY7JOO_7-emTa-125" target="fO2XuQDmY7JOO_7-emTa-99">
          <mxGeometry width="50" height="50" relative="1" as="geometry">
            <mxPoint x="-530" y="180" as="sourcePoint" />
            <mxPoint x="-435" y="807" as="targetPoint" />
            <Array as="points">
              <mxPoint x="-700" y="110" />
              <mxPoint x="-700" y="771" />
            </Array>
          </mxGeometry>
        </mxCell>
        <mxCell id="fO2XuQDmY7JOO_7-emTa-147" value="" style="endArrow=none;html=1;rounded=0;exitX=0;exitY=0.5;exitDx=0;exitDy=0;" edge="1" parent="1" source="fO2XuQDmY7JOO_7-emTa-131">
          <mxGeometry width="50" height="50" relative="1" as="geometry">
            <mxPoint x="-100" y="530" as="sourcePoint" />
            <mxPoint x="-720" y="130" as="targetPoint" />
          </mxGeometry>
        </mxCell>
        <mxCell id="fO2XuQDmY7JOO_7-emTa-148" value="" style="endArrow=none;html=1;rounded=0;entryX=0;entryY=0;entryDx=0;entryDy=0;" edge="1" parent="1" target="fO2XuQDmY7JOO_7-emTa-130">
          <mxGeometry width="50" height="50" relative="1" as="geometry">
            <mxPoint x="-720" y="180" as="sourcePoint" />
            <mxPoint x="-435" y="149" as="targetPoint" />
          </mxGeometry>
        </mxCell>
        <mxCell id="fO2XuQDmY7JOO_7-emTa-149" value="" style="endArrow=none;html=1;rounded=0;entryX=0;entryY=0.5;entryDx=0;entryDy=0;entryPerimeter=0;" edge="1" parent="1" target="fO2XuQDmY7JOO_7-emTa-91">
          <mxGeometry width="50" height="50" relative="1" as="geometry">
            <mxPoint x="-680" y="200" as="sourcePoint" />
            <mxPoint x="-439" y="191" as="targetPoint" />
          </mxGeometry>
        </mxCell>
        <mxCell id="fO2XuQDmY7JOO_7-emTa-150" value="" style="endArrow=none;html=1;rounded=0;entryX=0;entryY=0.5;entryDx=0;entryDy=0;exitX=0;exitY=0.5;exitDx=0;exitDy=0;exitPerimeter=0;" edge="1" parent="1" source="fO2XuQDmY7JOO_7-emTa-99" target="fO2XuQDmY7JOO_7-emTa-129">
          <mxGeometry width="50" height="50" relative="1" as="geometry">
            <mxPoint x="-670" y="210" as="sourcePoint" />
            <mxPoint x="-430" y="206" as="targetPoint" />
            <Array as="points">
              <mxPoint x="-660" y="784" />
              <mxPoint x="-660" y="215" />
            </Array>
          </mxGeometry>
        </mxCell>
        <mxCell id="fO2XuQDmY7JOO_7-emTa-153" value="" style="ellipse;whiteSpace=wrap;html=1;" vertex="1" parent="1">
          <mxGeometry x="-450" y="370" width="10" height="10" as="geometry" />
        </mxCell>
        <mxCell id="fO2XuQDmY7JOO_7-emTa-156" value="" style="endArrow=none;html=1;rounded=0;exitX=0;exitY=0;exitDx=0;exitDy=0;" edge="1" parent="1" source="fO2XuQDmY7JOO_7-emTa-117">
          <mxGeometry width="50" height="50" relative="1" as="geometry">
            <mxPoint x="-100" y="530" as="sourcePoint" />
            <mxPoint x="-720" y="711" as="targetPoint" />
          </mxGeometry>
        </mxCell>
        <mxCell id="fO2XuQDmY7JOO_7-emTa-157" value="" style="endArrow=none;html=1;rounded=0;exitX=0;exitY=0.5;exitDx=0;exitDy=0;" edge="1" parent="1" source="fO2XuQDmY7JOO_7-emTa-118">
          <mxGeometry width="50" height="50" relative="1" as="geometry">
            <mxPoint x="-480" y="730" as="sourcePoint" />
            <mxPoint x="-720" y="695" as="targetPoint" />
          </mxGeometry>
        </mxCell>
        <mxCell id="fO2XuQDmY7JOO_7-emTa-158" value="" style="endArrow=none;html=1;rounded=0;exitX=0;exitY=0.25;exitDx=0;exitDy=0;exitPerimeter=0;" edge="1" parent="1" source="fO2XuQDmY7JOO_7-emTa-98">
          <mxGeometry width="50" height="50" relative="1" as="geometry">
            <mxPoint x="-440" y="705" as="sourcePoint" />
            <mxPoint x="-700" y="681" as="targetPoint" />
          </mxGeometry>
        </mxCell>
        <mxCell id="fO2XuQDmY7JOO_7-emTa-159" value="" style="endArrow=none;html=1;rounded=0;exitX=0;exitY=0.038;exitDx=0;exitDy=0;exitPerimeter=0;" edge="1" parent="1" source="fO2XuQDmY7JOO_7-emTa-98">
          <mxGeometry width="50" height="50" relative="1" as="geometry">
            <mxPoint x="-430" y="691" as="sourcePoint" />
            <mxPoint x="-720" y="670" as="targetPoint" />
          </mxGeometry>
        </mxCell>
        <mxCell id="fO2XuQDmY7JOO_7-emTa-160" value="" style="endArrow=none;html=1;rounded=0;exitX=0;exitY=0;exitDx=0;exitDy=0;" edge="1" parent="1" source="fO2XuQDmY7JOO_7-emTa-113">
          <mxGeometry width="50" height="50" relative="1" as="geometry">
            <mxPoint x="-430" y="680" as="sourcePoint" />
            <mxPoint x="-660" y="630" as="targetPoint" />
          </mxGeometry>
        </mxCell>
        <mxCell id="fO2XuQDmY7JOO_7-emTa-161" value="" style="endArrow=none;html=1;rounded=0;exitX=0;exitY=0.5;exitDx=0;exitDy=0;exitPerimeter=0;" edge="1" parent="1" source="fO2XuQDmY7JOO_7-emTa-97">
          <mxGeometry width="50" height="50" relative="1" as="geometry">
            <mxPoint x="-439" y="641" as="sourcePoint" />
            <mxPoint x="-700" y="610" as="targetPoint" />
          </mxGeometry>
        </mxCell>
        <mxCell id="fO2XuQDmY7JOO_7-emTa-162" value="" style="endArrow=none;html=1;rounded=0;exitX=0;exitY=0.25;exitDx=0;exitDy=0;exitPerimeter=0;" edge="1" parent="1" source="fO2XuQDmY7JOO_7-emTa-97">
          <mxGeometry width="50" height="50" relative="1" as="geometry">
            <mxPoint x="-435" y="626" as="sourcePoint" />
            <mxPoint x="-720" y="600" as="targetPoint" />
          </mxGeometry>
        </mxCell>
        <mxCell id="fO2XuQDmY7JOO_7-emTa-163" value="" style="endArrow=none;html=1;rounded=0;" edge="1" parent="1">
          <mxGeometry width="50" height="50" relative="1" as="geometry">
            <mxPoint x="-450" y="560" as="sourcePoint" />
            <mxPoint x="-640" y="560" as="targetPoint" />
          </mxGeometry>
        </mxCell>
        <mxCell id="fO2XuQDmY7JOO_7-emTa-164" value="" style="endArrow=none;html=1;rounded=0;exitX=0;exitY=0.5;exitDx=0;exitDy=0;" edge="1" parent="1" source="fO2XuQDmY7JOO_7-emTa-123">
          <mxGeometry width="50" height="50" relative="1" as="geometry">
            <mxPoint x="-440" y="570" as="sourcePoint" />
            <mxPoint x="-660" y="543" as="targetPoint" />
          </mxGeometry>
        </mxCell>
        <mxCell id="fO2XuQDmY7JOO_7-emTa-165" value="&lt;span style=&quot;color: rgba(0, 0, 0, 0); font-family: monospace; font-size: 0px; text-align: start; background-color: rgb(251, 251, 251);&quot;&gt;%3CmxGraphModel%3E%3Croot%3E%3CmxCell%20id%3D%220%22%2F%3E%3CmxCell%20id%3D%221%22%20parent%3D%220%22%2F%3E%3CmxCell%20id%3D%222%22%20value%3D%22%22%20style%3D%22endArrow%3Dnone%3Bhtml%3D1%3Brounded%3D0%3BexitX%3D0%3BexitY%3D0.5%3BexitDx%3D0%3BexitDy%3D0%3BexitPerimeter%3D0%3B%22%20edge%3D%221%22%20parent%3D%221%22%3E%3CmxGeometry%20width%3D%2250%22%20height%3D%2250%22%20relative%3D%221%22%20as%3D%22geometry%22%3E%3CmxPoint%20x%3D%22-445%22%20y%3D%22535%22%20as%3D%22sourcePoint%22%2F%3E%3CmxPoint%20x%3D%22-700%22%20y%3D%22530%22%20as%3D%22targetPoint%22%2F%3E%3C%2FmxGeometry%3E%3C%2FmxCell%3E%3C%2Froot%3E%3C%2FmxGraphModel%3E&lt;/span&gt;" style="endArrow=none;html=1;rounded=0;exitX=0;exitY=0.5;exitDx=0;exitDy=0;exitPerimeter=0;" edge="1" parent="1" source="fO2XuQDmY7JOO_7-emTa-96">
          <mxGeometry width="50" height="50" relative="1" as="geometry">
            <mxPoint x="-440" y="553" as="sourcePoint" />
            <mxPoint x="-700" y="535" as="targetPoint" />
          </mxGeometry>
        </mxCell>
        <mxCell id="fO2XuQDmY7JOO_7-emTa-166" value="&lt;span style=&quot;color: rgba(0, 0, 0, 0); font-family: monospace; font-size: 0px; text-align: start; background-color: rgb(251, 251, 251);&quot;&gt;%3CmxGraphModel%3E%3Croot%3E%3CmxCell%20id%3D%220%22%2F%3E%3CmxCell%20id%3D%221%22%20parent%3D%220%22%2F%3E%3CmxCell%20id%3D%222%22%20value%3D%22%22%20style%3D%22endArrow%3Dnone%3Bhtml%3D1%3Brounded%3D0%3BexitX%3D0%3BexitY%3D0.5%3BexitDx%3D0%3BexitDy%3D0%3BexitPerimeter%3D0%3B%22%20edge%3D%221%22%20parent%3D%221%22%3E%3CmxGeometry%20width%3D%2250%22%20height%3D%2250%22%20relative%3D%221%22%20as%3D%22geometry%22%3E%3CmxPoint%20x%3D%22-445%22%20y%3D%22535%22%20as%3D%22sourcePoint%22%2F%3E%3CmxPoint%20x%3D%22-700%22%20y%3D%22530%22%20as%3D%22targetPoint%22%2F%3E%3C%2FmxGeometry%3E%3C%2FmxCell%3E%3C%2Froot%3E%3C%2FmxGraphModel%3E&lt;/span&gt;" style="endArrow=none;html=1;rounded=0;exitX=0;exitY=0.25;exitDx=0;exitDy=0;exitPerimeter=0;" edge="1" parent="1" source="fO2XuQDmY7JOO_7-emTa-96">
          <mxGeometry width="50" height="50" relative="1" as="geometry">
            <mxPoint x="-435" y="545" as="sourcePoint" />
            <mxPoint x="-720" y="520" as="targetPoint" />
          </mxGeometry>
        </mxCell>
        <mxCell id="fO2XuQDmY7JOO_7-emTa-167" value="&lt;span style=&quot;color: rgba(0, 0, 0, 0); font-family: monospace; font-size: 0px; text-align: start; background-color: rgb(251, 251, 251);&quot;&gt;%3CmxGraphModel%3E%3Croot%3E%3CmxCell%20id%3D%220%22%2F%3E%3CmxCell%20id%3D%221%22%20parent%3D%220%22%2F%3E%3CmxCell%20id%3D%222%22%20value%3D%22%22%20style%3D%22endArrow%3Dnone%3Bhtml%3D1%3Brounded%3D0%3BexitX%3D0%3BexitY%3D0.5%3BexitDx%3D0%3BexitDy%3D0%3BexitPerimeter%3D0%3B%22%20edge%3D%221%22%20parent%3D%221%22%3E%3CmxGeometry%20width%3D%2250%22%20height%3D%2250%22%20relative%3D%221%22%20as%3D%22geometry%22%3E%3CmxPoint%20x%3D%22-445%22%20y%3D%22535%22%20as%3D%22sourcePoint%22%2F%3E%3CmxPoint%20x%3D%22-700%22%20y%3D%22530%22%20as%3D%22targetPoint%22%2F%3E%3C%2FmxGeometry%3E%3C%2FmxCell%3E%3C%2Froot%3E%3C%2FmxGraphModel%3E&lt;/span&gt;" style="endArrow=none;html=1;rounded=0;exitX=0;exitY=0.75;exitDx=0;exitDy=0;exitPerimeter=0;" edge="1" parent="1" source="fO2XuQDmY7JOO_7-emTa-95">
          <mxGeometry width="50" height="50" relative="1" as="geometry">
            <mxPoint x="-435" y="532" as="sourcePoint" />
            <mxPoint x="-640" y="465" as="targetPoint" />
          </mxGeometry>
        </mxCell>
        <mxCell id="fO2XuQDmY7JOO_7-emTa-168" value="&lt;span style=&quot;color: rgba(0, 0, 0, 0); font-family: monospace; font-size: 0px; text-align: start; background-color: rgb(251, 251, 251);&quot;&gt;%3CmxGraphModel%3E%3Croot%3E%3CmxCell%20id%3D%220%22%2F%3E%3CmxCell%20id%3D%221%22%20parent%3D%220%22%2F%3E%3CmxCell%20id%3D%222%22%20value%3D%22%22%20style%3D%22endArrow%3Dnone%3Bhtml%3D1%3Brounded%3D0%3BexitX%3D0%3BexitY%3D0.5%3BexitDx%3D0%3BexitDy%3D0%3BexitPerimeter%3D0%3B%22%20edge%3D%221%22%20parent%3D%221%22%3E%3CmxGeometry%20width%3D%2250%22%20height%3D%2250%22%20relative%3D%221%22%20as%3D%22geometry%22%3E%3CmxPoint%20x%3D%22-445%22%20y%3D%22535%22%20as%3D%22sourcePoint%22%2F%3E%3CmxPoint%20x%3D%22-700%22%20y%3D%22530%22%20as%3D%22targetPoint%22%2F%3E%3C%2FmxGeometry%3E%3C%2FmxCell%3E%3C%2Froot%3E%3C%2FmxGraphModel%3E&lt;/span&gt;" style="endArrow=none;html=1;rounded=0;exitX=0;exitY=0.5;exitDx=0;exitDy=0;exitPerimeter=0;" edge="1" parent="1" source="fO2XuQDmY7JOO_7-emTa-95">
          <mxGeometry width="50" height="50" relative="1" as="geometry">
            <mxPoint x="-435" y="475" as="sourcePoint" />
            <mxPoint x="-660" y="452" as="targetPoint" />
          </mxGeometry>
        </mxCell>
        <mxCell id="fO2XuQDmY7JOO_7-emTa-169" value="&lt;span style=&quot;color: rgba(0, 0, 0, 0); font-family: monospace; font-size: 0px; text-align: start; background-color: rgb(251, 251, 251);&quot;&gt;%3CmxGraphModel%3E%3Croot%3E%3CmxCell%20id%3D%220%22%2F%3E%3CmxCell%20id%3D%221%22%20parent%3D%220%22%2F%3E%3CmxCell%20id%3D%222%22%20value%3D%22%22%20style%3D%22endArrow%3Dnone%3Bhtml%3D1%3Brounded%3D0%3BexitX%3D0%3BexitY%3D0.5%3BexitDx%3D0%3BexitDy%3D0%3BexitPerimeter%3D0%3B%22%20edge%3D%221%22%20parent%3D%221%22%3E%3CmxGeometry%20width%3D%2250%22%20height%3D%2250%22%20relative%3D%221%22%20as%3D%22geometry%22%3E%3CmxPoint%20x%3D%22-445%22%20y%3D%22535%22%20as%3D%22sourcePoint%22%2F%3E%3CmxPoint%20x%3D%22-700%22%20y%3D%22530%22%20as%3D%22targetPoint%22%2F%3E%3C%2FmxGeometry%3E%3C%2FmxCell%3E%3C%2Froot%3E%3C%2FmxGraphModel%3E&lt;/span&gt;" style="endArrow=none;html=1;rounded=0;exitX=0;exitY=1;exitDx=0;exitDy=0;" edge="1" parent="1" source="fO2XuQDmY7JOO_7-emTa-121">
          <mxGeometry width="50" height="50" relative="1" as="geometry">
            <mxPoint x="-435" y="462" as="sourcePoint" />
            <mxPoint x="-720" y="439" as="targetPoint" />
          </mxGeometry>
        </mxCell>
        <mxCell id="fO2XuQDmY7JOO_7-emTa-170" value="&lt;span style=&quot;color: rgba(0, 0, 0, 0); font-family: monospace; font-size: 0px; text-align: start; background-color: rgb(251, 251, 251);&quot;&gt;%3CmxGraphModel%3E%3Croot%3E%3CmxCell%20id%3D%220%22%2F%3E%3CmxCell%20id%3D%221%22%20parent%3D%220%22%2F%3E%3CmxCell%20id%3D%222%22%20value%3D%22%22%20style%3D%22endArrow%3Dnone%3Bhtml%3D1%3Brounded%3D0%3BexitX%3D0%3BexitY%3D0.5%3BexitDx%3D0%3BexitDy%3D0%3BexitPerimeter%3D0%3B%22%20edge%3D%221%22%20parent%3D%221%22%3E%3CmxGeometry%20width%3D%2250%22%20height%3D%2250%22%20relative%3D%221%22%20as%3D%22geometry%22%3E%3CmxPoint%20x%3D%22-445%22%20y%3D%22535%22%20as%3D%22sourcePoint%22%2F%3E%3CmxPoint%20x%3D%22-700%22%20y%3D%22530%22%20as%3D%22targetPoint%22%2F%3E%3C%2FmxGeometry%3E%3C%2FmxCell%3E%3C%2Froot%3E%3C%2FmxGraphModel%3E&lt;/span&gt;" style="endArrow=none;html=1;rounded=0;exitX=0;exitY=0.75;exitDx=0;exitDy=0;exitPerimeter=0;" edge="1" parent="1" source="fO2XuQDmY7JOO_7-emTa-94">
          <mxGeometry width="50" height="50" relative="1" as="geometry">
            <mxPoint x="-444" y="449" as="sourcePoint" />
            <mxPoint x="-640" y="390" as="targetPoint" />
          </mxGeometry>
        </mxCell>
        <mxCell id="fO2XuQDmY7JOO_7-emTa-171" value="&lt;span style=&quot;color: rgba(0, 0, 0, 0); font-family: monospace; font-size: 0px; text-align: start; background-color: rgb(251, 251, 251);&quot;&gt;%3CmxGraphModel%3E%3Croot%3E%3CmxCell%20id%3D%220%22%2F%3E%3CmxCell%20id%3D%221%22%20parent%3D%220%22%2F%3E%3CmxCell%20id%3D%222%22%20value%3D%22%22%20style%3D%22endArrow%3Dnone%3Bhtml%3D1%3Brounded%3D0%3BexitX%3D0%3BexitY%3D0.5%3BexitDx%3D0%3BexitDy%3D0%3BexitPerimeter%3D0%3B%22%20edge%3D%221%22%20parent%3D%221%22%3E%3CmxGeometry%20width%3D%2250%22%20height%3D%2250%22%20relative%3D%221%22%20as%3D%22geometry%22%3E%3CmxPoint%20x%3D%22-445%22%20y%3D%22535%22%20as%3D%22sourcePoint%22%2F%3E%3CmxPoint%20x%3D%22-700%22%20y%3D%22530%22%20as%3D%22targetPoint%22%2F%3E%3C%2FmxGeometry%3E%3C%2FmxCell%3E%3C%2Froot%3E%3C%2FmxGraphModel%3E&lt;/span&gt;" style="endArrow=none;html=1;rounded=0;exitX=0;exitY=0;exitDx=0;exitDy=0;" edge="1" parent="1" source="fO2XuQDmY7JOO_7-emTa-153">
          <mxGeometry width="50" height="50" relative="1" as="geometry">
            <mxPoint x="-435" y="397" as="sourcePoint" />
            <mxPoint x="-700" y="371" as="targetPoint" />
          </mxGeometry>
        </mxCell>
        <mxCell id="fO2XuQDmY7JOO_7-emTa-172" value="&lt;span style=&quot;color: rgba(0, 0, 0, 0); font-family: monospace; font-size: 0px; text-align: start; background-color: rgb(251, 251, 251);&quot;&gt;%3CmxGraphModel%3E%3Croot%3E%3CmxCell%20id%3D%220%22%2F%3E%3CmxCell%20id%3D%221%22%20parent%3D%220%22%2F%3E%3CmxCell%20id%3D%222%22%20value%3D%22%22%20style%3D%22endArrow%3Dnone%3Bhtml%3D1%3Brounded%3D0%3BexitX%3D0%3BexitY%3D0.5%3BexitDx%3D0%3BexitDy%3D0%3BexitPerimeter%3D0%3B%22%20edge%3D%221%22%20parent%3D%221%22%3E%3CmxGeometry%20width%3D%2250%22%20height%3D%2250%22%20relative%3D%221%22%20as%3D%22geometry%22%3E%3CmxPoint%20x%3D%22-445%22%20y%3D%22535%22%20as%3D%22sourcePoint%22%2F%3E%3CmxPoint%20x%3D%22-700%22%20y%3D%22530%22%20as%3D%22targetPoint%22%2F%3E%3C%2FmxGeometry%3E%3C%2FmxCell%3E%3C%2Froot%3E%3C%2FmxGraphModel%3E&lt;/span&gt;" style="endArrow=none;html=1;rounded=0;exitX=0;exitY=0.25;exitDx=0;exitDy=0;exitPerimeter=0;" edge="1" parent="1" source="fO2XuQDmY7JOO_7-emTa-94">
          <mxGeometry width="50" height="50" relative="1" as="geometry">
            <mxPoint x="-439" y="381" as="sourcePoint" />
            <mxPoint x="-720" y="361" as="targetPoint" />
          </mxGeometry>
        </mxCell>
        <mxCell id="fO2XuQDmY7JOO_7-emTa-173" value="&lt;span style=&quot;color: rgba(0, 0, 0, 0); font-family: monospace; font-size: 0px; text-align: start; background-color: rgb(251, 251, 251);&quot;&gt;%3CmxGraphModel%3E%3Croot%3E%3CmxCell%20id%3D%220%22%2F%3E%3CmxCell%20id%3D%221%22%20parent%3D%220%22%2F%3E%3CmxCell%20id%3D%222%22%20value%3D%22%22%20style%3D%22endArrow%3Dnone%3Bhtml%3D1%3Brounded%3D0%3BexitX%3D0%3BexitY%3D0.5%3BexitDx%3D0%3BexitDy%3D0%3BexitPerimeter%3D0%3B%22%20edge%3D%221%22%20parent%3D%221%22%3E%3CmxGeometry%20width%3D%2250%22%20height%3D%2250%22%20relative%3D%221%22%20as%3D%22geometry%22%3E%3CmxPoint%20x%3D%22-445%22%20y%3D%22535%22%20as%3D%22sourcePoint%22%2F%3E%3CmxPoint%20x%3D%22-700%22%20y%3D%22530%22%20as%3D%22targetPoint%22%2F%3E%3C%2FmxGeometry%3E%3C%2FmxCell%3E%3C%2Froot%3E%3C%2FmxGraphModel%3E&lt;/span&gt;" style="endArrow=none;html=1;rounded=0;exitX=0;exitY=0.75;exitDx=0;exitDy=0;exitPerimeter=0;" edge="1" parent="1" source="fO2XuQDmY7JOO_7-emTa-93">
          <mxGeometry width="50" height="50" relative="1" as="geometry">
            <mxPoint x="-435" y="371" as="sourcePoint" />
            <mxPoint x="-640" y="320" as="targetPoint" />
          </mxGeometry>
        </mxCell>
        <mxCell id="fO2XuQDmY7JOO_7-emTa-174" value="&lt;span style=&quot;color: rgba(0, 0, 0, 0); font-family: monospace; font-size: 0px; text-align: start; background-color: rgb(251, 251, 251);&quot;&gt;%3CmxGraphModel%3E%3Croot%3E%3CmxCell%20id%3D%220%22%2F%3E%3CmxCell%20id%3D%221%22%20parent%3D%220%22%2F%3E%3CmxCell%20id%3D%222%22%20value%3D%22%22%20style%3D%22endArrow%3Dnone%3Bhtml%3D1%3Brounded%3D0%3BexitX%3D0%3BexitY%3D0.5%3BexitDx%3D0%3BexitDy%3D0%3BexitPerimeter%3D0%3B%22%20edge%3D%221%22%20parent%3D%221%22%3E%3CmxGeometry%20width%3D%2250%22%20height%3D%2250%22%20relative%3D%221%22%20as%3D%22geometry%22%3E%3CmxPoint%20x%3D%22-445%22%20y%3D%22535%22%20as%3D%22sourcePoint%22%2F%3E%3CmxPoint%20x%3D%22-700%22%20y%3D%22530%22%20as%3D%22targetPoint%22%2F%3E%3C%2FmxGeometry%3E%3C%2FmxCell%3E%3C%2Froot%3E%3C%2FmxGraphModel%3E&lt;/span&gt;" style="endArrow=none;html=1;rounded=0;exitX=0;exitY=0;exitDx=0;exitDy=0;" edge="1" parent="1" source="fO2XuQDmY7JOO_7-emTa-120">
          <mxGeometry width="50" height="50" relative="1" as="geometry">
            <mxPoint x="-435" y="324" as="sourcePoint" />
            <mxPoint x="-700" y="297" as="targetPoint" />
          </mxGeometry>
        </mxCell>
        <mxCell id="fO2XuQDmY7JOO_7-emTa-175" value="&lt;span style=&quot;color: rgba(0, 0, 0, 0); font-family: monospace; font-size: 0px; text-align: start; background-color: rgb(251, 251, 251);&quot;&gt;%3CmxGraphModel%3E%3Croot%3E%3CmxCell%20id%3D%220%22%2F%3E%3CmxCell%20id%3D%221%22%20parent%3D%220%22%2F%3E%3CmxCell%20id%3D%222%22%20value%3D%22%22%20style%3D%22endArrow%3Dnone%3Bhtml%3D1%3Brounded%3D0%3BexitX%3D0%3BexitY%3D0.5%3BexitDx%3D0%3BexitDy%3D0%3BexitPerimeter%3D0%3B%22%20edge%3D%221%22%20parent%3D%221%22%3E%3CmxGeometry%20width%3D%2250%22%20height%3D%2250%22%20relative%3D%221%22%20as%3D%22geometry%22%3E%3CmxPoint%20x%3D%22-445%22%20y%3D%22535%22%20as%3D%22sourcePoint%22%2F%3E%3CmxPoint%20x%3D%22-700%22%20y%3D%22530%22%20as%3D%22targetPoint%22%2F%3E%3C%2FmxGeometry%3E%3C%2FmxCell%3E%3C%2Froot%3E%3C%2FmxGraphModel%3E&lt;/span&gt;" style="endArrow=none;html=1;rounded=0;exitX=0;exitY=0;exitDx=0;exitDy=0;" edge="1" parent="1" source="fO2XuQDmY7JOO_7-emTa-114">
          <mxGeometry width="50" height="50" relative="1" as="geometry">
            <mxPoint x="-444" y="307" as="sourcePoint" />
            <mxPoint x="-720" y="281" as="targetPoint" />
          </mxGeometry>
        </mxCell>
        <mxCell id="fO2XuQDmY7JOO_7-emTa-176" value="" style="endArrow=none;html=1;rounded=0;" edge="1" parent="1">
          <mxGeometry width="50" height="50" relative="1" as="geometry">
            <mxPoint x="-800" y="280" as="sourcePoint" />
            <mxPoint x="-720" y="280" as="targetPoint" />
          </mxGeometry>
        </mxCell>
        <mxCell id="fO2XuQDmY7JOO_7-emTa-177" value="" style="endArrow=none;html=1;rounded=0;" edge="1" parent="1">
          <mxGeometry width="50" height="50" relative="1" as="geometry">
            <mxPoint x="-800" y="370" as="sourcePoint" />
            <mxPoint x="-700" y="368" as="targetPoint" />
          </mxGeometry>
        </mxCell>
        <mxCell id="fO2XuQDmY7JOO_7-emTa-178" value="" style="endArrow=none;html=1;rounded=0;" edge="1" parent="1">
          <mxGeometry width="50" height="50" relative="1" as="geometry">
            <mxPoint x="-800" y="420" as="sourcePoint" />
            <mxPoint x="-660" y="420" as="targetPoint" />
          </mxGeometry>
        </mxCell>
        <mxCell id="fO2XuQDmY7JOO_7-emTa-179" value="" style="endArrow=none;html=1;rounded=0;" edge="1" parent="1">
          <mxGeometry width="50" height="50" relative="1" as="geometry">
            <mxPoint x="-800" y="500" as="sourcePoint" />
            <mxPoint x="-640" y="500" as="targetPoint" />
          </mxGeometry>
        </mxCell>
        <mxCell id="fO2XuQDmY7JOO_7-emTa-180" value="" style="endArrow=none;html=1;rounded=0;" edge="1" parent="1">
          <mxGeometry width="50" height="50" relative="1" as="geometry">
            <mxPoint x="-800" y="280" as="sourcePoint" />
            <mxPoint x="-800" y="500" as="targetPoint" />
          </mxGeometry>
        </mxCell>
        <mxCell id="fO2XuQDmY7JOO_7-emTa-181" value="" style="endArrow=none;html=1;rounded=0;" edge="1" parent="1">
          <mxGeometry width="50" height="50" relative="1" as="geometry">
            <mxPoint x="-1790" y="450" as="sourcePoint" />
            <mxPoint x="-800" y="390" as="targetPoint" />
            <Array as="points">
              <mxPoint x="-1790" y="570" />
              <mxPoint x="-1020" y="560" />
              <mxPoint x="-960" y="560" />
              <mxPoint x="-960" y="390" />
            </Array>
          </mxGeometry>
        </mxCell>
        <mxCell id="fO2XuQDmY7JOO_7-emTa-182" value="A[0]" style="text;html=1;align=center;verticalAlign=middle;resizable=0;points=[];autosize=1;strokeColor=none;fillColor=none;" vertex="1" parent="1">
          <mxGeometry x="-780" y="330" width="40" height="30" as="geometry" />
        </mxCell>
        <mxCell id="fO2XuQDmY7JOO_7-emTa-183" value="A[1]" style="text;html=1;align=center;verticalAlign=middle;resizable=0;points=[];autosize=1;strokeColor=none;fillColor=none;" vertex="1" parent="1">
          <mxGeometry x="-790" y="240" width="40" height="30" as="geometry" />
        </mxCell>
        <mxCell id="fO2XuQDmY7JOO_7-emTa-184" value="B[0]" style="text;html=1;align=center;verticalAlign=middle;resizable=0;points=[];autosize=1;strokeColor=none;fillColor=none;" vertex="1" parent="1">
          <mxGeometry x="-790" y="468" width="40" height="30" as="geometry" />
        </mxCell>
        <mxCell id="fO2XuQDmY7JOO_7-emTa-185" value="B[1]" style="text;html=1;align=center;verticalAlign=middle;resizable=0;points=[];autosize=1;strokeColor=none;fillColor=none;" vertex="1" parent="1">
          <mxGeometry x="-780" y="390" width="40" height="30" as="geometry" />
        </mxCell>
        <mxCell id="fO2XuQDmY7JOO_7-emTa-186" value="" style="shape=xor;whiteSpace=wrap;html=1;" vertex="1" parent="1">
          <mxGeometry x="-1240" y="103" width="60" height="80" as="geometry" />
        </mxCell>
        <mxCell id="fO2XuQDmY7JOO_7-emTa-187" value="" style="shape=xor;whiteSpace=wrap;html=1;" vertex="1" parent="1">
          <mxGeometry x="-1240" y="398" width="60" height="80" as="geometry" />
        </mxCell>
        <mxCell id="fO2XuQDmY7JOO_7-emTa-188" value="" style="shape=xor;whiteSpace=wrap;html=1;" vertex="1" parent="1">
          <mxGeometry x="-1240" y="638" width="60" height="80" as="geometry" />
        </mxCell>
        <mxCell id="fO2XuQDmY7JOO_7-emTa-189" value="" style="verticalLabelPosition=bottom;shadow=0;dashed=0;align=center;html=1;verticalAlign=top;shape=mxgraph.electrical.abstract.dac;strokeColor=#000000;fontFamily=Helvetica;fontSize=12;fontColor=default;fontStyle=1;fillColor=#fff2cc;rotation=-180;" vertex="1" parent="1">
          <mxGeometry x="-1100" y="660" width="30" height="20" as="geometry" />
        </mxCell>
        <mxCell id="fO2XuQDmY7JOO_7-emTa-190" value="" style="verticalLabelPosition=bottom;shadow=0;dashed=0;align=center;html=1;verticalAlign=top;shape=mxgraph.electrical.abstract.dac;strokeColor=#000000;fontFamily=Helvetica;fontSize=12;fontColor=default;fontStyle=1;fillColor=#fff2cc;rotation=-180;" vertex="1" parent="1">
          <mxGeometry x="-1095" y="428" width="30" height="20" as="geometry" />
        </mxCell>
        <mxCell id="fO2XuQDmY7JOO_7-emTa-191" value="" style="verticalLabelPosition=bottom;shadow=0;dashed=0;align=center;html=1;verticalAlign=top;shape=mxgraph.electrical.abstract.dac;strokeColor=#000000;fontFamily=Helvetica;fontSize=12;fontColor=default;fontStyle=1;fillColor=#fff2cc;rotation=-180;" vertex="1" parent="1">
          <mxGeometry x="-1085" y="132" width="30" height="20" as="geometry" />
        </mxCell>
        <mxCell id="fO2XuQDmY7JOO_7-emTa-192" style="edgeStyle=orthogonalEdgeStyle;rounded=0;orthogonalLoop=1;jettySize=auto;html=1;exitX=1;exitY=0.5;exitDx=0;exitDy=0;exitPerimeter=0;entryX=1;entryY=0.5;entryDx=0;entryDy=0;entryPerimeter=0;" edge="1" parent="1" source="fO2XuQDmY7JOO_7-emTa-188" target="fO2XuQDmY7JOO_7-emTa-189">
          <mxGeometry relative="1" as="geometry" />
        </mxCell>
        <mxCell id="fO2XuQDmY7JOO_7-emTa-193" style="edgeStyle=orthogonalEdgeStyle;rounded=0;orthogonalLoop=1;jettySize=auto;html=1;exitX=1;exitY=0.5;exitDx=0;exitDy=0;exitPerimeter=0;entryX=1;entryY=0.5;entryDx=0;entryDy=0;entryPerimeter=0;" edge="1" parent="1" source="fO2XuQDmY7JOO_7-emTa-187" target="fO2XuQDmY7JOO_7-emTa-190">
          <mxGeometry relative="1" as="geometry" />
        </mxCell>
        <mxCell id="fO2XuQDmY7JOO_7-emTa-194" style="edgeStyle=orthogonalEdgeStyle;rounded=0;orthogonalLoop=1;jettySize=auto;html=1;exitX=1;exitY=0.5;exitDx=0;exitDy=0;exitPerimeter=0;entryX=1;entryY=0.5;entryDx=0;entryDy=0;entryPerimeter=0;" edge="1" parent="1" source="fO2XuQDmY7JOO_7-emTa-186" target="fO2XuQDmY7JOO_7-emTa-191">
          <mxGeometry relative="1" as="geometry" />
        </mxCell>
        <mxCell id="fO2XuQDmY7JOO_7-emTa-195" value="A" style="text;html=1;align=center;verticalAlign=middle;resizable=0;points=[];autosize=1;strokeColor=none;fillColor=none;" vertex="1" parent="1">
          <mxGeometry x="-1085" y="98" width="30" height="30" as="geometry" />
        </mxCell>
        <mxCell id="fO2XuQDmY7JOO_7-emTa-196" value="B" style="text;html=1;align=center;verticalAlign=middle;resizable=0;points=[];autosize=1;strokeColor=none;fillColor=none;" vertex="1" parent="1">
          <mxGeometry x="-1090" y="390" width="30" height="30" as="geometry" />
        </mxCell>
        <mxCell id="fO2XuQDmY7JOO_7-emTa-197" value="C" style="text;html=1;align=center;verticalAlign=middle;resizable=0;points=[];autosize=1;strokeColor=none;fillColor=none;" vertex="1" parent="1">
          <mxGeometry x="-1095" y="618" width="30" height="30" as="geometry" />
        </mxCell>
        <mxCell id="fO2XuQDmY7JOO_7-emTa-198" value="" style="shape=xor;whiteSpace=wrap;html=1;" vertex="1" parent="1">
          <mxGeometry x="-1240" y="870" width="60" height="80" as="geometry" />
        </mxCell>
        <mxCell id="fO2XuQDmY7JOO_7-emTa-199" value="" style="verticalLabelPosition=bottom;shadow=0;dashed=0;align=center;html=1;verticalAlign=top;shape=mxgraph.electrical.abstract.dac;strokeColor=#000000;fontFamily=Helvetica;fontSize=12;fontColor=default;fontStyle=1;fillColor=#fff2cc;rotation=-180;" vertex="1" parent="1">
          <mxGeometry x="-1095" y="900" width="30" height="20" as="geometry" />
        </mxCell>
        <mxCell id="fO2XuQDmY7JOO_7-emTa-200" style="edgeStyle=orthogonalEdgeStyle;rounded=0;orthogonalLoop=1;jettySize=auto;html=1;exitX=1;exitY=0.5;exitDx=0;exitDy=0;exitPerimeter=0;entryX=1;entryY=0.5;entryDx=0;entryDy=0;entryPerimeter=0;" edge="1" parent="1" source="fO2XuQDmY7JOO_7-emTa-198" target="fO2XuQDmY7JOO_7-emTa-199">
          <mxGeometry relative="1" as="geometry" />
        </mxCell>
        <mxCell id="fO2XuQDmY7JOO_7-emTa-201" value="D" style="text;html=1;align=center;verticalAlign=middle;resizable=0;points=[];autosize=1;strokeColor=none;fillColor=none;" vertex="1" parent="1">
          <mxGeometry x="-1090" y="858" width="30" height="30" as="geometry" />
        </mxCell>
        <mxCell id="fO2XuQDmY7JOO_7-emTa-203" value="" style="ellipse;whiteSpace=wrap;html=1;" vertex="1" parent="1">
          <mxGeometry x="-1370" y="673" width="10" height="10" as="geometry" />
        </mxCell>
        <mxCell id="fO2XuQDmY7JOO_7-emTa-204" value="" style="ellipse;whiteSpace=wrap;html=1;" vertex="1" parent="1">
          <mxGeometry x="-1370" y="509" width="10" height="10" as="geometry" />
        </mxCell>
        <mxCell id="fO2XuQDmY7JOO_7-emTa-213" value="" style="ellipse;whiteSpace=wrap;html=1;" vertex="1" parent="1">
          <mxGeometry x="-1370" y="77" width="10" height="10" as="geometry" />
        </mxCell>
        <mxCell id="fO2XuQDmY7JOO_7-emTa-214" value="" style="ellipse;whiteSpace=wrap;html=1;" vertex="1" parent="1">
          <mxGeometry x="-1370" y="20" width="10" height="10" as="geometry" />
        </mxCell>
        <mxCell id="fO2XuQDmY7JOO_7-emTa-215" value="" style="ellipse;whiteSpace=wrap;html=1;" vertex="1" parent="1">
          <mxGeometry x="-1370" y="103" width="10" height="10" as="geometry" />
        </mxCell>
        <mxCell id="fO2XuQDmY7JOO_7-emTa-217" value="" style="ellipse;whiteSpace=wrap;html=1;" vertex="1" parent="1">
          <mxGeometry x="-1370" y="318" width="10" height="10" as="geometry" />
        </mxCell>
        <mxCell id="fO2XuQDmY7JOO_7-emTa-220" value="" style="ellipse;whiteSpace=wrap;html=1;" vertex="1" parent="1">
          <mxGeometry x="-1370" y="30" width="10" height="10" as="geometry" />
        </mxCell>
        <mxCell id="fO2XuQDmY7JOO_7-emTa-272" style="edgeStyle=orthogonalEdgeStyle;rounded=0;orthogonalLoop=1;jettySize=auto;html=1;exitX=1;exitY=0.5;exitDx=0;exitDy=0;exitPerimeter=0;" edge="1" parent="1" source="fO2XuQDmY7JOO_7-emTa-221">
          <mxGeometry relative="1" as="geometry">
            <mxPoint x="-1230" y="130" as="targetPoint" />
            <Array as="points">
              <mxPoint x="-1320" y="130" />
            </Array>
          </mxGeometry>
        </mxCell>
        <mxCell id="fO2XuQDmY7JOO_7-emTa-221" value="" style="shape=or;whiteSpace=wrap;html=1;" vertex="1" parent="1">
          <mxGeometry x="-1360" y="76" width="40" height="52" as="geometry" />
        </mxCell>
        <mxCell id="fO2XuQDmY7JOO_7-emTa-271" style="edgeStyle=orthogonalEdgeStyle;rounded=0;orthogonalLoop=1;jettySize=auto;html=1;exitX=1;exitY=0.5;exitDx=0;exitDy=0;exitPerimeter=0;" edge="1" parent="1" source="fO2XuQDmY7JOO_7-emTa-222">
          <mxGeometry relative="1" as="geometry">
            <mxPoint x="-1230" y="140" as="targetPoint" />
          </mxGeometry>
        </mxCell>
        <mxCell id="fO2XuQDmY7JOO_7-emTa-222" value="" style="shape=or;whiteSpace=wrap;html=1;" vertex="1" parent="1">
          <mxGeometry x="-1360" y="139" width="40" height="52" as="geometry" />
        </mxCell>
        <mxCell id="fO2XuQDmY7JOO_7-emTa-273" style="edgeStyle=orthogonalEdgeStyle;rounded=0;orthogonalLoop=1;jettySize=auto;html=1;exitX=1;exitY=0.5;exitDx=0;exitDy=0;exitPerimeter=0;" edge="1" parent="1" source="fO2XuQDmY7JOO_7-emTa-223">
          <mxGeometry relative="1" as="geometry">
            <mxPoint x="-1240" y="120" as="targetPoint" />
            <Array as="points">
              <mxPoint x="-1280" y="41" />
              <mxPoint x="-1280" y="120" />
            </Array>
          </mxGeometry>
        </mxCell>
        <mxCell id="fO2XuQDmY7JOO_7-emTa-223" value="" style="shape=or;whiteSpace=wrap;html=1;" vertex="1" parent="1">
          <mxGeometry x="-1360" y="15" width="40" height="52" as="geometry" />
        </mxCell>
        <mxCell id="fO2XuQDmY7JOO_7-emTa-224" value="" style="shape=or;whiteSpace=wrap;html=1;" vertex="1" parent="1">
          <mxGeometry x="-1360" y="203" width="40" height="52" as="geometry" />
        </mxCell>
        <mxCell id="fO2XuQDmY7JOO_7-emTa-225" value="" style="shape=or;whiteSpace=wrap;html=1;" vertex="1" parent="1">
          <mxGeometry x="-1360" y="286" width="40" height="52" as="geometry" />
        </mxCell>
        <mxCell id="fO2XuQDmY7JOO_7-emTa-226" value="" style="shape=or;whiteSpace=wrap;html=1;" vertex="1" parent="1">
          <mxGeometry x="-1360" y="350" width="40" height="52" as="geometry" />
        </mxCell>
        <mxCell id="fO2XuQDmY7JOO_7-emTa-267" style="edgeStyle=orthogonalEdgeStyle;rounded=0;orthogonalLoop=1;jettySize=auto;html=1;exitX=1;exitY=0.5;exitDx=0;exitDy=0;exitPerimeter=0;" edge="1" parent="1" source="fO2XuQDmY7JOO_7-emTa-227">
          <mxGeometry relative="1" as="geometry">
            <mxPoint x="-1230" y="446" as="targetPoint" />
          </mxGeometry>
        </mxCell>
        <mxCell id="fO2XuQDmY7JOO_7-emTa-227" value="" style="shape=or;whiteSpace=wrap;html=1;" vertex="1" parent="1">
          <mxGeometry x="-1360" y="420" width="40" height="52" as="geometry" />
        </mxCell>
        <mxCell id="fO2XuQDmY7JOO_7-emTa-265" style="edgeStyle=orthogonalEdgeStyle;rounded=0;orthogonalLoop=1;jettySize=auto;html=1;exitX=1;exitY=0.5;exitDx=0;exitDy=0;exitPerimeter=0;" edge="1" parent="1" source="fO2XuQDmY7JOO_7-emTa-228">
          <mxGeometry relative="1" as="geometry">
            <mxPoint x="-1230" y="660" as="targetPoint" />
            <Array as="points">
              <mxPoint x="-1290" y="622" />
              <mxPoint x="-1290" y="660" />
            </Array>
          </mxGeometry>
        </mxCell>
        <mxCell id="fO2XuQDmY7JOO_7-emTa-228" value="" style="shape=or;whiteSpace=wrap;html=1;" vertex="1" parent="1">
          <mxGeometry x="-1360" y="596" width="40" height="52" as="geometry" />
        </mxCell>
        <mxCell id="fO2XuQDmY7JOO_7-emTa-264" style="edgeStyle=orthogonalEdgeStyle;rounded=0;orthogonalLoop=1;jettySize=auto;html=1;exitX=1;exitY=0.5;exitDx=0;exitDy=0;exitPerimeter=0;" edge="1" parent="1" source="fO2XuQDmY7JOO_7-emTa-229">
          <mxGeometry relative="1" as="geometry">
            <mxPoint x="-1230" y="680" as="targetPoint" />
          </mxGeometry>
        </mxCell>
        <mxCell id="fO2XuQDmY7JOO_7-emTa-229" value="" style="shape=or;whiteSpace=wrap;html=1;" vertex="1" parent="1">
          <mxGeometry x="-1360" y="665" width="40" height="52" as="geometry" />
        </mxCell>
        <mxCell id="fO2XuQDmY7JOO_7-emTa-230" value="" style="shape=or;whiteSpace=wrap;html=1;" vertex="1" parent="1">
          <mxGeometry x="-1360" y="734" width="40" height="52" as="geometry" />
        </mxCell>
        <mxCell id="fO2XuQDmY7JOO_7-emTa-234" value="" style="ellipse;whiteSpace=wrap;html=1;" vertex="1" parent="1">
          <mxGeometry x="-1370" y="212" width="10" height="10" as="geometry" />
        </mxCell>
        <mxCell id="fO2XuQDmY7JOO_7-emTa-239" value="" style="ellipse;whiteSpace=wrap;html=1;" vertex="1" parent="1">
          <mxGeometry x="-1370" y="458" width="10" height="10" as="geometry" />
        </mxCell>
        <mxCell id="fO2XuQDmY7JOO_7-emTa-242" value="" style="ellipse;whiteSpace=wrap;html=1;" vertex="1" parent="1">
          <mxGeometry x="-1370" y="632" width="10" height="10" as="geometry" />
        </mxCell>
        <mxCell id="fO2XuQDmY7JOO_7-emTa-243" value="" style="ellipse;whiteSpace=wrap;html=1;" vertex="1" parent="1">
          <mxGeometry x="-1370" y="884" width="10" height="10" as="geometry" />
        </mxCell>
        <mxCell id="fO2XuQDmY7JOO_7-emTa-244" value="" style="ellipse;whiteSpace=wrap;html=1;" vertex="1" parent="1">
          <mxGeometry x="-1370" y="173" width="10" height="10" as="geometry" />
        </mxCell>
        <mxCell id="fO2XuQDmY7JOO_7-emTa-245" value="" style="ellipse;whiteSpace=wrap;html=1;" vertex="1" parent="1">
          <mxGeometry x="-1370" y="113" width="10" height="10" as="geometry" />
        </mxCell>
        <mxCell id="fO2XuQDmY7JOO_7-emTa-246" value="" style="ellipse;whiteSpace=wrap;html=1;" vertex="1" parent="1">
          <mxGeometry x="-1370" y="40" width="10" height="10" as="geometry" />
        </mxCell>
        <mxCell id="fO2XuQDmY7JOO_7-emTa-248" value="" style="shape=or;whiteSpace=wrap;html=1;" vertex="1" parent="1">
          <mxGeometry x="-1360" y="498" width="40" height="52" as="geometry" />
        </mxCell>
        <mxCell id="fO2XuQDmY7JOO_7-emTa-262" style="edgeStyle=orthogonalEdgeStyle;rounded=0;orthogonalLoop=1;jettySize=auto;html=1;exitX=1;exitY=0.5;exitDx=0;exitDy=0;exitPerimeter=0;" edge="1" parent="1" source="fO2XuQDmY7JOO_7-emTa-253">
          <mxGeometry relative="1" as="geometry">
            <mxPoint x="-1240" y="880" as="targetPoint" />
            <Array as="points">
              <mxPoint x="-1290" y="844" />
              <mxPoint x="-1290" y="860" />
              <mxPoint x="-1239" y="860" />
              <mxPoint x="-1239" y="880" />
            </Array>
          </mxGeometry>
        </mxCell>
        <mxCell id="fO2XuQDmY7JOO_7-emTa-253" value="" style="shape=or;whiteSpace=wrap;html=1;" vertex="1" parent="1">
          <mxGeometry x="-1360" y="818" width="40" height="52" as="geometry" />
        </mxCell>
        <mxCell id="fO2XuQDmY7JOO_7-emTa-254" value="" style="shape=or;whiteSpace=wrap;html=1;" vertex="1" parent="1">
          <mxGeometry x="-1360" y="884" width="40" height="52" as="geometry" />
        </mxCell>
        <mxCell id="fO2XuQDmY7JOO_7-emTa-260" style="edgeStyle=orthogonalEdgeStyle;rounded=0;orthogonalLoop=1;jettySize=auto;html=1;exitX=1;exitY=0.5;exitDx=0;exitDy=0;exitPerimeter=0;" edge="1" parent="1" source="fO2XuQDmY7JOO_7-emTa-255">
          <mxGeometry relative="1" as="geometry">
            <mxPoint x="-1230" y="910" as="targetPoint" />
            <Array as="points">
              <mxPoint x="-1270" y="976" />
              <mxPoint x="-1270" y="910" />
            </Array>
          </mxGeometry>
        </mxCell>
        <mxCell id="fO2XuQDmY7JOO_7-emTa-255" value="" style="shape=or;whiteSpace=wrap;html=1;" vertex="1" parent="1">
          <mxGeometry x="-1360" y="950" width="40" height="52" as="geometry" />
        </mxCell>
        <mxCell id="fO2XuQDmY7JOO_7-emTa-256" value="" style="shape=or;whiteSpace=wrap;html=1;" vertex="1" parent="1">
          <mxGeometry x="-1360" y="1020" width="40" height="52" as="geometry" />
        </mxCell>
        <mxCell id="fO2XuQDmY7JOO_7-emTa-259" style="edgeStyle=orthogonalEdgeStyle;rounded=0;orthogonalLoop=1;jettySize=auto;html=1;exitX=1;exitY=0.5;exitDx=0;exitDy=0;exitPerimeter=0;entryX=0.175;entryY=0.75;entryDx=0;entryDy=0;entryPerimeter=0;" edge="1" parent="1" source="fO2XuQDmY7JOO_7-emTa-256" target="fO2XuQDmY7JOO_7-emTa-198">
          <mxGeometry relative="1" as="geometry">
            <Array as="points">
              <mxPoint x="-1260" y="1046" />
              <mxPoint x="-1260" y="930" />
            </Array>
          </mxGeometry>
        </mxCell>
        <mxCell id="fO2XuQDmY7JOO_7-emTa-261" style="edgeStyle=orthogonalEdgeStyle;rounded=0;orthogonalLoop=1;jettySize=auto;html=1;exitX=1;exitY=0.5;exitDx=0;exitDy=0;exitPerimeter=0;entryX=0.175;entryY=0.25;entryDx=0;entryDy=0;entryPerimeter=0;" edge="1" parent="1" source="fO2XuQDmY7JOO_7-emTa-254" target="fO2XuQDmY7JOO_7-emTa-198">
          <mxGeometry relative="1" as="geometry" />
        </mxCell>
        <mxCell id="fO2XuQDmY7JOO_7-emTa-263" style="edgeStyle=orthogonalEdgeStyle;rounded=0;orthogonalLoop=1;jettySize=auto;html=1;exitX=1;exitY=0.5;exitDx=0;exitDy=0;exitPerimeter=0;entryX=0.175;entryY=0.75;entryDx=0;entryDy=0;entryPerimeter=0;" edge="1" parent="1" source="fO2XuQDmY7JOO_7-emTa-230" target="fO2XuQDmY7JOO_7-emTa-188">
          <mxGeometry relative="1" as="geometry">
            <Array as="points">
              <mxPoint x="-1270" y="760" />
              <mxPoint x="-1270" y="698" />
            </Array>
          </mxGeometry>
        </mxCell>
        <mxCell id="fO2XuQDmY7JOO_7-emTa-266" style="edgeStyle=orthogonalEdgeStyle;rounded=0;orthogonalLoop=1;jettySize=auto;html=1;exitX=1;exitY=0.5;exitDx=0;exitDy=0;exitPerimeter=0;entryX=0.175;entryY=0.75;entryDx=0;entryDy=0;entryPerimeter=0;" edge="1" parent="1">
          <mxGeometry relative="1" as="geometry">
            <mxPoint x="-1320" y="528" as="sourcePoint" />
            <mxPoint x="-1229.5" y="462" as="targetPoint" />
            <Array as="points">
              <mxPoint x="-1270" y="529" />
              <mxPoint x="-1270" y="462" />
            </Array>
          </mxGeometry>
        </mxCell>
        <mxCell id="fO2XuQDmY7JOO_7-emTa-268" style="edgeStyle=orthogonalEdgeStyle;rounded=0;orthogonalLoop=1;jettySize=auto;html=1;exitX=1;exitY=0.5;exitDx=0;exitDy=0;exitPerimeter=0;entryX=0.25;entryY=0.5;entryDx=0;entryDy=0;entryPerimeter=0;" edge="1" parent="1" source="fO2XuQDmY7JOO_7-emTa-226" target="fO2XuQDmY7JOO_7-emTa-187">
          <mxGeometry relative="1" as="geometry" />
        </mxCell>
        <mxCell id="fO2XuQDmY7JOO_7-emTa-269" style="edgeStyle=orthogonalEdgeStyle;rounded=0;orthogonalLoop=1;jettySize=auto;html=1;exitX=1;exitY=0.5;exitDx=0;exitDy=0;exitPerimeter=0;entryX=0.175;entryY=0.25;entryDx=0;entryDy=0;entryPerimeter=0;" edge="1" parent="1" source="fO2XuQDmY7JOO_7-emTa-225" target="fO2XuQDmY7JOO_7-emTa-187">
          <mxGeometry relative="1" as="geometry">
            <Array as="points">
              <mxPoint x="-1250" y="312" />
              <mxPoint x="-1250" y="418" />
            </Array>
          </mxGeometry>
        </mxCell>
        <mxCell id="fO2XuQDmY7JOO_7-emTa-270" style="edgeStyle=orthogonalEdgeStyle;rounded=0;orthogonalLoop=1;jettySize=auto;html=1;exitX=1;exitY=0.5;exitDx=0;exitDy=0;exitPerimeter=0;entryX=0.175;entryY=0.75;entryDx=0;entryDy=0;entryPerimeter=0;" edge="1" parent="1" source="fO2XuQDmY7JOO_7-emTa-224" target="fO2XuQDmY7JOO_7-emTa-186">
          <mxGeometry relative="1" as="geometry">
            <Array as="points">
              <mxPoint x="-1260" y="229" />
              <mxPoint x="-1260" y="163" />
            </Array>
          </mxGeometry>
        </mxCell>
        <mxCell id="fO2XuQDmY7JOO_7-emTa-274" value="" style="ellipse;whiteSpace=wrap;html=1;" vertex="1" parent="1">
          <mxGeometry x="-1370" y="530" width="10" height="10" as="geometry" />
        </mxCell>
        <mxCell id="fO2XuQDmY7JOO_7-emTa-275" value="" style="ellipse;whiteSpace=wrap;html=1;" vertex="1" parent="1">
          <mxGeometry x="-1370" y="839" width="10" height="10" as="geometry" />
        </mxCell>
        <mxCell id="fO2XuQDmY7JOO_7-emTa-276" value="" style="ellipse;whiteSpace=wrap;html=1;" vertex="1" parent="1">
          <mxGeometry x="-1370" y="828" width="10" height="10" as="geometry" />
        </mxCell>
        <mxCell id="fO2XuQDmY7JOO_7-emTa-277" value="" style="ellipse;whiteSpace=wrap;html=1;" vertex="1" parent="1">
          <mxGeometry x="-1370" y="818" width="10" height="10" as="geometry" />
        </mxCell>
        <mxCell id="fO2XuQDmY7JOO_7-emTa-278" value="" style="ellipse;whiteSpace=wrap;html=1;" vertex="1" parent="1">
          <mxGeometry x="-1370" y="710" width="10" height="10" as="geometry" />
        </mxCell>
        <mxCell id="fO2XuQDmY7JOO_7-emTa-280" value="" style="ellipse;whiteSpace=wrap;html=1;" vertex="1" parent="1">
          <mxGeometry x="-1370" y="686" width="10" height="10" as="geometry" />
        </mxCell>
        <mxCell id="fO2XuQDmY7JOO_7-emTa-281" value="" style="ellipse;whiteSpace=wrap;html=1;" vertex="1" parent="1">
          <mxGeometry x="-1370" y="905" width="10" height="10" as="geometry" />
        </mxCell>
        <mxCell id="fO2XuQDmY7JOO_7-emTa-282" value="" style="ellipse;whiteSpace=wrap;html=1;" vertex="1" parent="1">
          <mxGeometry x="-1370" y="920" width="10" height="10" as="geometry" />
        </mxCell>
        <mxCell id="fO2XuQDmY7JOO_7-emTa-283" value="" style="ellipse;whiteSpace=wrap;html=1;" vertex="1" parent="1">
          <mxGeometry x="-1370" y="1030" width="10" height="10" as="geometry" />
        </mxCell>
        <mxCell id="fO2XuQDmY7JOO_7-emTa-284" value="" style="ellipse;whiteSpace=wrap;html=1;" vertex="1" parent="1">
          <mxGeometry x="-1370" y="1062" width="10" height="10" as="geometry" />
        </mxCell>
        <mxCell id="fO2XuQDmY7JOO_7-emTa-285" value="" style="endArrow=none;html=1;rounded=0;entryX=0;entryY=0.5;entryDx=0;entryDy=0;entryPerimeter=0;" edge="1" parent="1" target="fO2XuQDmY7JOO_7-emTa-255">
          <mxGeometry width="50" height="50" relative="1" as="geometry">
            <mxPoint x="-1600" y="976" as="sourcePoint" />
            <mxPoint x="-1120" y="700" as="targetPoint" />
          </mxGeometry>
        </mxCell>
        <mxCell id="fO2XuQDmY7JOO_7-emTa-286" value="" style="endArrow=none;html=1;rounded=0;entryX=0;entryY=0.5;entryDx=0;entryDy=0;exitX=0.25;exitY=0.769;exitDx=0;exitDy=0;exitPerimeter=0;" edge="1" parent="1" source="fO2XuQDmY7JOO_7-emTa-223">
          <mxGeometry width="50" height="50" relative="1" as="geometry">
            <mxPoint x="-1365" y="55" as="sourcePoint" />
            <mxPoint x="-1370" y="1072" as="targetPoint" />
            <Array as="points">
              <mxPoint x="-1560" y="55" />
              <mxPoint x="-1560" y="605" />
              <mxPoint x="-1560" y="1070" />
            </Array>
          </mxGeometry>
        </mxCell>
        <mxCell id="fO2XuQDmY7JOO_7-emTa-287" value="" style="endArrow=none;html=1;rounded=0;entryX=0;entryY=0.5;entryDx=0;entryDy=0;exitX=0;exitY=0;exitDx=0;exitDy=0;" edge="1" parent="1" source="fO2XuQDmY7JOO_7-emTa-283" target="fO2XuQDmY7JOO_7-emTa-220">
          <mxGeometry width="50" height="50" relative="1" as="geometry">
            <mxPoint x="-1670" y="970" as="sourcePoint" />
            <mxPoint x="-1610" y="760" as="targetPoint" />
            <Array as="points">
              <mxPoint x="-1640" y="1020" />
              <mxPoint x="-1640" y="35" />
            </Array>
          </mxGeometry>
        </mxCell>
        <mxCell id="fO2XuQDmY7JOO_7-emTa-288" value="" style="endArrow=none;html=1;rounded=0;entryX=0.05;entryY=0;entryDx=0;entryDy=0;entryPerimeter=0;exitX=0;exitY=0;exitDx=0;exitDy=0;" edge="1" parent="1">
          <mxGeometry width="50" height="50" relative="1" as="geometry">
            <mxPoint x="-1368.5355339059329" y="27.46446609406712" as="sourcePoint" />
            <mxPoint x="-1358" y="1025" as="targetPoint" />
            <Array as="points">
              <mxPoint x="-1680" y="26" />
              <mxPoint x="-1680" y="646" />
              <mxPoint x="-1680" y="1010" />
            </Array>
          </mxGeometry>
        </mxCell>
        <mxCell id="fO2XuQDmY7JOO_7-emTa-289" value="" style="endArrow=none;html=1;rounded=0;entryX=0;entryY=0.5;entryDx=0;entryDy=0;entryPerimeter=0;exitX=0;exitY=0.5;exitDx=0;exitDy=0;" edge="1" parent="1" source="fO2XuQDmY7JOO_7-emTa-246" target="fO2XuQDmY7JOO_7-emTa-256">
          <mxGeometry width="50" height="50" relative="1" as="geometry">
            <mxPoint x="-1590" y="738" as="sourcePoint" />
            <mxPoint x="-1540" y="690" as="targetPoint" />
            <Array as="points">
              <mxPoint x="-1600" y="45" />
              <mxPoint x="-1600" y="1040" />
            </Array>
          </mxGeometry>
        </mxCell>
        <mxCell id="fO2XuQDmY7JOO_7-emTa-290" value="" style="endArrow=none;html=1;rounded=0;exitX=0;exitY=0.25;exitDx=0;exitDy=0;exitPerimeter=0;" edge="1" parent="1" source="fO2XuQDmY7JOO_7-emTa-255">
          <mxGeometry width="50" height="50" relative="1" as="geometry">
            <mxPoint x="-1170" y="740" as="sourcePoint" />
            <mxPoint x="-1640" y="960" as="targetPoint" />
          </mxGeometry>
        </mxCell>
        <mxCell id="fO2XuQDmY7JOO_7-emTa-291" value="" style="endArrow=none;html=1;rounded=0;" edge="1" parent="1">
          <mxGeometry width="50" height="50" relative="1" as="geometry">
            <mxPoint x="-1560" y="990" as="sourcePoint" />
            <mxPoint x="-1360" y="990" as="targetPoint" />
          </mxGeometry>
        </mxCell>
        <mxCell id="fO2XuQDmY7JOO_7-emTa-292" value="" style="endArrow=none;html=1;rounded=0;exitX=0;exitY=0.5;exitDx=0;exitDy=0;" edge="1" parent="1" source="fO2XuQDmY7JOO_7-emTa-282">
          <mxGeometry width="50" height="50" relative="1" as="geometry">
            <mxPoint x="-1170" y="740" as="sourcePoint" />
            <mxPoint x="-1560" y="925" as="targetPoint" />
          </mxGeometry>
        </mxCell>
        <mxCell id="fO2XuQDmY7JOO_7-emTa-293" value="" style="endArrow=none;html=1;rounded=0;exitX=0;exitY=0.25;exitDx=0;exitDy=0;exitPerimeter=0;" edge="1" parent="1" source="fO2XuQDmY7JOO_7-emTa-254">
          <mxGeometry width="50" height="50" relative="1" as="geometry">
            <mxPoint x="-1360" y="935" as="sourcePoint" />
            <mxPoint x="-1640" y="897" as="targetPoint" />
          </mxGeometry>
        </mxCell>
        <mxCell id="fO2XuQDmY7JOO_7-emTa-294" value="" style="endArrow=none;html=1;rounded=0;exitX=0;exitY=1;exitDx=0;exitDy=0;" edge="1" parent="1" source="fO2XuQDmY7JOO_7-emTa-281">
          <mxGeometry width="50" height="50" relative="1" as="geometry">
            <mxPoint x="-1350" y="945" as="sourcePoint" />
            <mxPoint x="-1600" y="914" as="targetPoint" />
          </mxGeometry>
        </mxCell>
        <mxCell id="fO2XuQDmY7JOO_7-emTa-295" value="" style="endArrow=none;html=1;rounded=0;" edge="1" parent="1">
          <mxGeometry width="50" height="50" relative="1" as="geometry">
            <mxPoint x="-1360" y="890" as="sourcePoint" />
            <mxPoint x="-1680" y="890" as="targetPoint" />
          </mxGeometry>
        </mxCell>
        <mxCell id="fO2XuQDmY7JOO_7-emTa-296" value="" style="endArrow=none;html=1;rounded=0;entryX=0;entryY=1;entryDx=0;entryDy=0;" edge="1" parent="1" target="fO2XuQDmY7JOO_7-emTa-276">
          <mxGeometry width="50" height="50" relative="1" as="geometry">
            <mxPoint x="-1640" y="840" as="sourcePoint" />
            <mxPoint x="-1120" y="690" as="targetPoint" />
          </mxGeometry>
        </mxCell>
        <mxCell id="fO2XuQDmY7JOO_7-emTa-297" value="" style="endArrow=none;html=1;rounded=0;entryX=0;entryY=1;entryDx=0;entryDy=0;" edge="1" parent="1" target="fO2XuQDmY7JOO_7-emTa-275">
          <mxGeometry width="50" height="50" relative="1" as="geometry">
            <mxPoint x="-1600" y="848" as="sourcePoint" />
            <mxPoint x="-1085" y="730" as="targetPoint" />
          </mxGeometry>
        </mxCell>
        <mxCell id="fO2XuQDmY7JOO_7-emTa-298" value="" style="endArrow=none;html=1;rounded=0;entryX=0;entryY=0.2;entryDx=0;entryDy=0;entryPerimeter=0;" edge="1" parent="1" target="fO2XuQDmY7JOO_7-emTa-276">
          <mxGeometry width="50" height="50" relative="1" as="geometry">
            <mxPoint x="-1680" y="830" as="sourcePoint" />
            <mxPoint x="-1370" y="820" as="targetPoint" />
          </mxGeometry>
        </mxCell>
        <mxCell id="fO2XuQDmY7JOO_7-emTa-299" value="" style="endArrow=none;html=1;rounded=0;entryX=0;entryY=1;entryDx=0;entryDy=0;" edge="1" parent="1">
          <mxGeometry width="50" height="50" relative="1" as="geometry">
            <mxPoint x="-1560" y="858" as="sourcePoint" />
            <mxPoint x="-1359" y="858" as="targetPoint" />
          </mxGeometry>
        </mxCell>
        <mxCell id="fO2XuQDmY7JOO_7-emTa-300" value="" style="endArrow=none;html=1;rounded=0;" edge="1" parent="1">
          <mxGeometry width="50" height="50" relative="1" as="geometry">
            <mxPoint x="-1680" y="600" as="sourcePoint" />
            <mxPoint x="-1360" y="600" as="targetPoint" />
          </mxGeometry>
        </mxCell>
        <mxCell id="fO2XuQDmY7JOO_7-emTa-301" value="" style="endArrow=none;html=1;rounded=0;entryX=0;entryY=0.5;entryDx=0;entryDy=0;entryPerimeter=0;" edge="1" parent="1" target="fO2XuQDmY7JOO_7-emTa-228">
          <mxGeometry width="50" height="50" relative="1" as="geometry">
            <mxPoint x="-1640" y="622" as="sourcePoint" />
            <mxPoint x="-1430" y="623" as="targetPoint" />
          </mxGeometry>
        </mxCell>
        <mxCell id="fO2XuQDmY7JOO_7-emTa-302" value="" style="endArrow=none;html=1;rounded=0;entryX=0;entryY=1;entryDx=0;entryDy=0;" edge="1" parent="1" target="fO2XuQDmY7JOO_7-emTa-242">
          <mxGeometry width="50" height="50" relative="1" as="geometry">
            <mxPoint x="-1560" y="641" as="sourcePoint" />
            <mxPoint x="-1380" y="635" as="targetPoint" />
          </mxGeometry>
        </mxCell>
        <mxCell id="fO2XuQDmY7JOO_7-emTa-303" value="" style="endArrow=none;html=1;rounded=0;" edge="1" parent="1">
          <mxGeometry width="50" height="50" relative="1" as="geometry">
            <mxPoint x="-1680" y="678" as="sourcePoint" />
            <mxPoint x="-1370" y="678" as="targetPoint" />
          </mxGeometry>
        </mxCell>
        <mxCell id="fO2XuQDmY7JOO_7-emTa-304" value="" style="endArrow=none;html=1;rounded=0;entryX=0;entryY=0.5;entryDx=0;entryDy=0;" edge="1" parent="1" target="fO2XuQDmY7JOO_7-emTa-280">
          <mxGeometry width="50" height="50" relative="1" as="geometry">
            <mxPoint x="-1640" y="690" as="sourcePoint" />
            <mxPoint x="-1430" y="700" as="targetPoint" />
          </mxGeometry>
        </mxCell>
        <mxCell id="fO2XuQDmY7JOO_7-emTa-305" value="" style="endArrow=none;html=1;rounded=0;" edge="1" parent="1">
          <mxGeometry width="50" height="50" relative="1" as="geometry">
            <mxPoint x="-1600" y="700" as="sourcePoint" />
            <mxPoint x="-1360" y="700" as="targetPoint" />
          </mxGeometry>
        </mxCell>
        <mxCell id="fO2XuQDmY7JOO_7-emTa-306" value="" style="endArrow=none;html=1;rounded=0;" edge="1" parent="1">
          <mxGeometry width="50" height="50" relative="1" as="geometry">
            <mxPoint x="-1560" y="717" as="sourcePoint" />
            <mxPoint x="-1370" y="717" as="targetPoint" />
          </mxGeometry>
        </mxCell>
        <mxCell id="fO2XuQDmY7JOO_7-emTa-307" value="" style="endArrow=none;html=1;rounded=0;" edge="1" parent="1">
          <mxGeometry width="50" height="50" relative="1" as="geometry">
            <mxPoint x="-1680" y="740" as="sourcePoint" />
            <mxPoint x="-1360" y="740" as="targetPoint" />
          </mxGeometry>
        </mxCell>
        <mxCell id="fO2XuQDmY7JOO_7-emTa-308" value="" style="endArrow=none;html=1;rounded=0;entryX=0;entryY=0.5;entryDx=0;entryDy=0;entryPerimeter=0;" edge="1" parent="1" target="fO2XuQDmY7JOO_7-emTa-230">
          <mxGeometry width="50" height="50" relative="1" as="geometry">
            <mxPoint x="-1640" y="760" as="sourcePoint" />
            <mxPoint x="-1360" y="748" as="targetPoint" />
            <Array as="points">
              <mxPoint x="-1440" y="760" />
            </Array>
          </mxGeometry>
        </mxCell>
        <mxCell id="fO2XuQDmY7JOO_7-emTa-309" value="" style="endArrow=none;html=1;rounded=0;entryX=0;entryY=0.75;entryDx=0;entryDy=0;entryPerimeter=0;" edge="1" parent="1" target="fO2XuQDmY7JOO_7-emTa-230">
          <mxGeometry width="50" height="50" relative="1" as="geometry">
            <mxPoint x="-1560" y="780" as="sourcePoint" />
            <mxPoint x="-1360" y="770" as="targetPoint" />
          </mxGeometry>
        </mxCell>
        <mxCell id="fO2XuQDmY7JOO_7-emTa-310" value="" style="endArrow=none;html=1;rounded=0;" edge="1" parent="1">
          <mxGeometry width="50" height="50" relative="1" as="geometry">
            <mxPoint x="-1690" y="81" as="sourcePoint" />
            <mxPoint x="-1370" y="81" as="targetPoint" />
            <Array as="points" />
          </mxGeometry>
        </mxCell>
        <mxCell id="fO2XuQDmY7JOO_7-emTa-311" value="" style="endArrow=none;html=1;rounded=0;" edge="1" parent="1">
          <mxGeometry width="50" height="50" relative="1" as="geometry">
            <mxPoint x="-1640" y="100" as="sourcePoint" />
            <mxPoint x="-1360" y="93" as="targetPoint" />
            <Array as="points" />
          </mxGeometry>
        </mxCell>
        <mxCell id="fO2XuQDmY7JOO_7-emTa-312" value="" style="endArrow=none;html=1;rounded=0;" edge="1" parent="1">
          <mxGeometry width="50" height="50" relative="1" as="geometry">
            <mxPoint x="-1600" y="113" as="sourcePoint" />
            <mxPoint x="-1370" y="113" as="targetPoint" />
            <Array as="points" />
          </mxGeometry>
        </mxCell>
        <mxCell id="fO2XuQDmY7JOO_7-emTa-313" value="" style="endArrow=none;html=1;rounded=0;" edge="1" parent="1">
          <mxGeometry width="50" height="50" relative="1" as="geometry">
            <mxPoint x="-1560" y="120" as="sourcePoint" />
            <mxPoint x="-1360" y="120" as="targetPoint" />
            <Array as="points" />
          </mxGeometry>
        </mxCell>
        <mxCell id="fO2XuQDmY7JOO_7-emTa-315" value="" style="endArrow=none;html=1;rounded=0;" edge="1" parent="1">
          <mxGeometry width="50" height="50" relative="1" as="geometry">
            <mxPoint x="-1680" y="150" as="sourcePoint" />
            <mxPoint x="-1360" y="150" as="targetPoint" />
          </mxGeometry>
        </mxCell>
        <mxCell id="fO2XuQDmY7JOO_7-emTa-316" value="" style="endArrow=none;html=1;rounded=0;" edge="1" parent="1">
          <mxGeometry width="50" height="50" relative="1" as="geometry">
            <mxPoint x="-1640" y="162" as="sourcePoint" />
            <mxPoint x="-1360" y="162" as="targetPoint" />
          </mxGeometry>
        </mxCell>
        <mxCell id="fO2XuQDmY7JOO_7-emTa-317" value="" style="endArrow=none;html=1;rounded=0;" edge="1" parent="1">
          <mxGeometry width="50" height="50" relative="1" as="geometry">
            <mxPoint x="-1600" y="180" as="sourcePoint" />
            <mxPoint x="-1370" y="173" as="targetPoint" />
          </mxGeometry>
        </mxCell>
        <mxCell id="fO2XuQDmY7JOO_7-emTa-318" value="" style="endArrow=none;html=1;rounded=0;" edge="1" parent="1">
          <mxGeometry width="50" height="50" relative="1" as="geometry">
            <mxPoint x="-1560" y="190" as="sourcePoint" />
            <mxPoint x="-1360" y="185" as="targetPoint" />
          </mxGeometry>
        </mxCell>
        <mxCell id="fO2XuQDmY7JOO_7-emTa-319" value="" style="endArrow=none;html=1;rounded=0;" edge="1" parent="1">
          <mxGeometry width="50" height="50" relative="1" as="geometry">
            <mxPoint x="-1640" y="220" as="sourcePoint" />
            <mxPoint x="-1370" y="215" as="targetPoint" />
          </mxGeometry>
        </mxCell>
        <mxCell id="fO2XuQDmY7JOO_7-emTa-320" value="" style="endArrow=none;html=1;rounded=0;" edge="1" parent="1">
          <mxGeometry width="50" height="50" relative="1" as="geometry">
            <mxPoint x="-1680" y="204" as="sourcePoint" />
            <mxPoint x="-1360" y="204" as="targetPoint" />
          </mxGeometry>
        </mxCell>
        <mxCell id="fO2XuQDmY7JOO_7-emTa-321" value="" style="endArrow=none;html=1;rounded=0;" edge="1" parent="1">
          <mxGeometry width="50" height="50" relative="1" as="geometry">
            <mxPoint x="-1600" y="230" as="sourcePoint" />
            <mxPoint x="-1360" y="230" as="targetPoint" />
          </mxGeometry>
        </mxCell>
        <mxCell id="fO2XuQDmY7JOO_7-emTa-322" value="" style="endArrow=none;html=1;rounded=0;" edge="1" parent="1">
          <mxGeometry width="50" height="50" relative="1" as="geometry">
            <mxPoint x="-1560" y="245" as="sourcePoint" />
            <mxPoint x="-1360" y="245" as="targetPoint" />
          </mxGeometry>
        </mxCell>
        <mxCell id="fO2XuQDmY7JOO_7-emTa-323" value="" style="endArrow=none;html=1;rounded=0;" edge="1" parent="1">
          <mxGeometry width="50" height="50" relative="1" as="geometry">
            <mxPoint x="-1640" y="290" as="sourcePoint" />
            <mxPoint x="-1360" y="290" as="targetPoint" />
          </mxGeometry>
        </mxCell>
        <mxCell id="fO2XuQDmY7JOO_7-emTa-324" value="" style="endArrow=none;html=1;rounded=0;entryX=0;entryY=0.5;entryDx=0;entryDy=0;entryPerimeter=0;" edge="1" parent="1" target="fO2XuQDmY7JOO_7-emTa-225">
          <mxGeometry width="50" height="50" relative="1" as="geometry">
            <mxPoint x="-1600" y="310" as="sourcePoint" />
            <mxPoint x="-1360" y="300" as="targetPoint" />
          </mxGeometry>
        </mxCell>
        <mxCell id="fO2XuQDmY7JOO_7-emTa-325" value="" style="endArrow=none;html=1;rounded=0;" edge="1" parent="1">
          <mxGeometry width="50" height="50" relative="1" as="geometry">
            <mxPoint x="-1560" y="320" as="sourcePoint" />
            <mxPoint x="-1370" y="320" as="targetPoint" />
          </mxGeometry>
        </mxCell>
        <mxCell id="fO2XuQDmY7JOO_7-emTa-326" value="" style="endArrow=none;html=1;rounded=0;" edge="1" parent="1">
          <mxGeometry width="50" height="50" relative="1" as="geometry">
            <mxPoint x="-1680" y="360" as="sourcePoint" />
            <mxPoint x="-1360" y="360" as="targetPoint" />
            <Array as="points" />
          </mxGeometry>
        </mxCell>
        <mxCell id="fO2XuQDmY7JOO_7-emTa-327" value="" style="endArrow=none;html=1;rounded=0;entryX=0;entryY=0.5;entryDx=0;entryDy=0;entryPerimeter=0;" edge="1" parent="1" target="fO2XuQDmY7JOO_7-emTa-226">
          <mxGeometry width="50" height="50" relative="1" as="geometry">
            <mxPoint x="-1600" y="380" as="sourcePoint" />
            <mxPoint x="-1360" y="368" as="targetPoint" />
            <Array as="points" />
          </mxGeometry>
        </mxCell>
        <mxCell id="fO2XuQDmY7JOO_7-emTa-328" value="" style="endArrow=none;html=1;rounded=0;" edge="1" parent="1">
          <mxGeometry width="50" height="50" relative="1" as="geometry">
            <mxPoint x="-1560" y="390" as="sourcePoint" />
            <mxPoint x="-1360" y="390" as="targetPoint" />
            <Array as="points" />
          </mxGeometry>
        </mxCell>
        <mxCell id="fO2XuQDmY7JOO_7-emTa-329" value="" style="endArrow=none;html=1;rounded=0;" edge="1" parent="1">
          <mxGeometry width="50" height="50" relative="1" as="geometry">
            <mxPoint x="-1680" y="430" as="sourcePoint" />
            <mxPoint x="-1360" y="430" as="targetPoint" />
            <Array as="points" />
          </mxGeometry>
        </mxCell>
        <mxCell id="fO2XuQDmY7JOO_7-emTa-330" value="" style="endArrow=none;html=1;rounded=0;" edge="1" parent="1">
          <mxGeometry width="50" height="50" relative="1" as="geometry">
            <mxPoint x="-1640" y="445" as="sourcePoint" />
            <mxPoint x="-1360" y="445" as="targetPoint" />
            <Array as="points" />
          </mxGeometry>
        </mxCell>
        <mxCell id="fO2XuQDmY7JOO_7-emTa-331" value="" style="endArrow=none;html=1;rounded=0;" edge="1" parent="1">
          <mxGeometry width="50" height="50" relative="1" as="geometry">
            <mxPoint x="-1560" y="460" as="sourcePoint" />
            <mxPoint x="-1370" y="460" as="targetPoint" />
            <Array as="points" />
          </mxGeometry>
        </mxCell>
        <mxCell id="fO2XuQDmY7JOO_7-emTa-332" value="" style="endArrow=none;html=1;rounded=0;" edge="1" parent="1">
          <mxGeometry width="50" height="50" relative="1" as="geometry">
            <mxPoint x="-1680" y="500" as="sourcePoint" />
            <mxPoint x="-1370" y="509" as="targetPoint" />
            <Array as="points" />
          </mxGeometry>
        </mxCell>
        <mxCell id="fO2XuQDmY7JOO_7-emTa-333" value="" style="endArrow=none;html=1;rounded=0;" edge="1" parent="1">
          <mxGeometry width="50" height="50" relative="1" as="geometry">
            <mxPoint x="-1640" y="520" as="sourcePoint" />
            <mxPoint x="-1360" y="520" as="targetPoint" />
            <Array as="points" />
          </mxGeometry>
        </mxCell>
        <mxCell id="fO2XuQDmY7JOO_7-emTa-334" value="" style="endArrow=none;html=1;rounded=0;" edge="1" parent="1">
          <mxGeometry width="50" height="50" relative="1" as="geometry">
            <mxPoint x="-1600" y="535" as="sourcePoint" />
            <mxPoint x="-1370" y="535" as="targetPoint" />
            <Array as="points" />
          </mxGeometry>
        </mxCell>
        <mxCell id="fO2XuQDmY7JOO_7-emTa-335" value="" style="endArrow=none;html=1;rounded=0;" edge="1" parent="1">
          <mxGeometry width="50" height="50" relative="1" as="geometry">
            <mxPoint x="-1560" y="550" as="sourcePoint" />
            <mxPoint x="-1362" y="550" as="targetPoint" />
          </mxGeometry>
        </mxCell>
        <mxCell id="fO2XuQDmY7JOO_7-emTa-336" value="" style="endArrow=none;html=1;rounded=0;" edge="1" parent="1">
          <mxGeometry width="50" height="50" relative="1" as="geometry">
            <mxPoint x="-1760" y="360" as="sourcePoint" />
            <mxPoint x="-1680" y="360" as="targetPoint" />
          </mxGeometry>
        </mxCell>
        <mxCell id="fO2XuQDmY7JOO_7-emTa-337" value="" style="endArrow=none;html=1;rounded=0;" edge="1" parent="1">
          <mxGeometry width="50" height="50" relative="1" as="geometry">
            <mxPoint x="-1760" y="396" as="sourcePoint" />
            <mxPoint x="-1640" y="396" as="targetPoint" />
          </mxGeometry>
        </mxCell>
        <mxCell id="fO2XuQDmY7JOO_7-emTa-338" value="" style="endArrow=none;html=1;rounded=0;" edge="1" parent="1">
          <mxGeometry width="50" height="50" relative="1" as="geometry">
            <mxPoint x="-1760" y="450" as="sourcePoint" />
            <mxPoint x="-1600" y="450" as="targetPoint" />
          </mxGeometry>
        </mxCell>
        <mxCell id="fO2XuQDmY7JOO_7-emTa-339" value="" style="endArrow=none;html=1;rounded=0;" edge="1" parent="1">
          <mxGeometry width="50" height="50" relative="1" as="geometry">
            <mxPoint x="-1760" y="540" as="sourcePoint" />
            <mxPoint x="-1560" y="540" as="targetPoint" />
          </mxGeometry>
        </mxCell>
        <mxCell id="fO2XuQDmY7JOO_7-emTa-340" value="" style="endArrow=none;html=1;rounded=0;" edge="1" parent="1">
          <mxGeometry width="50" height="50" relative="1" as="geometry">
            <mxPoint x="-1760" y="550" as="sourcePoint" />
            <mxPoint x="-1760" y="360" as="targetPoint" />
          </mxGeometry>
        </mxCell>
        <mxCell id="fO2XuQDmY7JOO_7-emTa-341" value="" style="endArrow=none;html=1;rounded=0;" edge="1" parent="1">
          <mxGeometry width="50" height="50" relative="1" as="geometry">
            <mxPoint x="-1840" y="450" as="sourcePoint" />
            <mxPoint x="-1760" y="450" as="targetPoint" />
          </mxGeometry>
        </mxCell>
        <mxCell id="fO2XuQDmY7JOO_7-emTa-342" value="A[1]" style="text;html=1;align=center;verticalAlign=middle;resizable=0;points=[];autosize=1;strokeColor=none;fillColor=none;" vertex="1" parent="1">
          <mxGeometry x="-1750" y="328" width="40" height="30" as="geometry" />
        </mxCell>
        <mxCell id="fO2XuQDmY7JOO_7-emTa-343" value="A[0]" style="text;html=1;align=center;verticalAlign=middle;resizable=0;points=[];autosize=1;strokeColor=none;fillColor=none;" vertex="1" parent="1">
          <mxGeometry x="-1760" y="368" width="40" height="30" as="geometry" />
        </mxCell>
        <mxCell id="fO2XuQDmY7JOO_7-emTa-344" value="B[1]" style="text;html=1;align=center;verticalAlign=middle;resizable=0;points=[];autosize=1;strokeColor=none;fillColor=none;" vertex="1" parent="1">
          <mxGeometry x="-1750" y="418" width="40" height="30" as="geometry" />
        </mxCell>
        <mxCell id="fO2XuQDmY7JOO_7-emTa-345" value="B[0]" style="text;html=1;align=center;verticalAlign=middle;resizable=0;points=[];autosize=1;strokeColor=none;fillColor=none;" vertex="1" parent="1">
          <mxGeometry x="-1750" y="498" width="40" height="30" as="geometry" />
        </mxCell>
        <mxCell id="fO2XuQDmY7JOO_7-emTa-346" value="" style="endArrow=none;html=1;rounded=0;" edge="1" parent="1">
          <mxGeometry width="50" height="50" relative="1" as="geometry">
            <mxPoint x="-1840" y="480" as="sourcePoint" />
            <mxPoint x="-1790" y="430" as="targetPoint" />
          </mxGeometry>
        </mxCell>
        <mxCell id="fO2XuQDmY7JOO_7-emTa-347" value="" style="verticalLabelPosition=bottom;shadow=0;dashed=0;align=center;html=1;verticalAlign=top;shape=mxgraph.electrical.abstract.dac;strokeColor=#000000;fontFamily=Helvetica;fontSize=12;fontColor=default;fontStyle=1;fillColor=#fff2cc;rotation=0;" vertex="1" parent="1">
          <mxGeometry x="-1870" y="440" width="30" height="20" as="geometry" />
        </mxCell>
        <mxCell id="fO2XuQDmY7JOO_7-emTa-348" value="Num" style="text;html=1;align=center;verticalAlign=middle;resizable=0;points=[];autosize=1;strokeColor=none;fillColor=none;" vertex="1" parent="1">
          <mxGeometry x="-1915" y="398" width="50" height="30" as="geometry" />
        </mxCell>
        <mxCell id="fO2XuQDmY7JOO_7-emTa-349" value="4" style="text;html=1;align=center;verticalAlign=middle;resizable=0;points=[];autosize=1;strokeColor=none;fillColor=none;" vertex="1" parent="1">
          <mxGeometry x="-1825" y="488" width="30" height="30" as="geometry" />
        </mxCell>
      </root>
    </mxGraphModel>
  </diagram>
</mxfile>
